<mxfile host="app.diagrams.net" modified="2023-05-25T13:27:05.273Z" agent="Mozilla/5.0 (Windows NT 10.0; Win64; x64) AppleWebKit/537.36 (KHTML, like Gecko) Chrome/113.0.0.0 Safari/537.36" etag="QZsl8dwaZbNRNJVRfMJt" version="21.3.3" type="device" pages="13">
  <diagram id="C5RBs43oDa-KdzZeNtuy" name="Page-1">
    <mxGraphModel dx="880" dy="452" grid="1" gridSize="10" guides="1" tooltips="1" connect="1" arrows="1" fold="1" page="1" pageScale="1" pageWidth="827" pageHeight="1169" math="0" shadow="0">
      <root>
        <mxCell id="WIyWlLk6GJQsqaUBKTNV-0" />
        <mxCell id="WIyWlLk6GJQsqaUBKTNV-1" parent="WIyWlLk6GJQsqaUBKTNV-0" />
        <mxCell id="1ykxo2CiMoOQxjhd-uY3-36" style="rounded=0;orthogonalLoop=1;jettySize=auto;html=1;exitX=0.5;exitY=1;exitDx=0;exitDy=0;entryX=0.5;entryY=0;entryDx=0;entryDy=0;endArrow=oval;endFill=0;" edge="1" parent="WIyWlLk6GJQsqaUBKTNV-1" source="1ykxo2CiMoOQxjhd-uY3-28" target="1ykxo2CiMoOQxjhd-uY3-35">
          <mxGeometry relative="1" as="geometry" />
        </mxCell>
        <mxCell id="1ykxo2CiMoOQxjhd-uY3-40" style="edgeStyle=orthogonalEdgeStyle;rounded=0;orthogonalLoop=1;jettySize=auto;html=1;exitX=0.5;exitY=0;exitDx=0;exitDy=0;entryX=0.5;entryY=1;entryDx=0;entryDy=0;" edge="1" parent="WIyWlLk6GJQsqaUBKTNV-1" source="1ykxo2CiMoOQxjhd-uY3-28" target="1ykxo2CiMoOQxjhd-uY3-31">
          <mxGeometry relative="1" as="geometry" />
        </mxCell>
        <mxCell id="1ykxo2CiMoOQxjhd-uY3-41" style="edgeStyle=orthogonalEdgeStyle;rounded=0;orthogonalLoop=1;jettySize=auto;html=1;exitX=0.25;exitY=0;exitDx=0;exitDy=0;entryX=1;entryY=0.5;entryDx=0;entryDy=0;" edge="1" parent="WIyWlLk6GJQsqaUBKTNV-1" source="1ykxo2CiMoOQxjhd-uY3-28" target="1ykxo2CiMoOQxjhd-uY3-30">
          <mxGeometry relative="1" as="geometry" />
        </mxCell>
        <mxCell id="1ykxo2CiMoOQxjhd-uY3-42" style="edgeStyle=orthogonalEdgeStyle;rounded=0;orthogonalLoop=1;jettySize=auto;html=1;exitX=0.75;exitY=0;exitDx=0;exitDy=0;entryX=0;entryY=0.5;entryDx=0;entryDy=0;" edge="1" parent="WIyWlLk6GJQsqaUBKTNV-1" source="1ykxo2CiMoOQxjhd-uY3-28" target="1ykxo2CiMoOQxjhd-uY3-32">
          <mxGeometry relative="1" as="geometry" />
        </mxCell>
        <mxCell id="1ykxo2CiMoOQxjhd-uY3-28" value="POLIZAS" style="rounded=0;whiteSpace=wrap;html=1;" vertex="1" parent="WIyWlLk6GJQsqaUBKTNV-1">
          <mxGeometry x="330" y="140" width="120" height="60" as="geometry" />
        </mxCell>
        <mxCell id="1ykxo2CiMoOQxjhd-uY3-38" style="edgeStyle=orthogonalEdgeStyle;rounded=0;orthogonalLoop=1;jettySize=auto;html=1;exitX=0;exitY=0.5;exitDx=0;exitDy=0;entryX=1;entryY=0.5;entryDx=0;entryDy=0;" edge="1" parent="WIyWlLk6GJQsqaUBKTNV-1" source="1ykxo2CiMoOQxjhd-uY3-29" target="1ykxo2CiMoOQxjhd-uY3-33">
          <mxGeometry relative="1" as="geometry" />
        </mxCell>
        <mxCell id="1ykxo2CiMoOQxjhd-uY3-39" style="edgeStyle=orthogonalEdgeStyle;rounded=0;orthogonalLoop=1;jettySize=auto;html=1;exitX=0;exitY=0.75;exitDx=0;exitDy=0;entryX=1.022;entryY=0.72;entryDx=0;entryDy=0;entryPerimeter=0;" edge="1" parent="WIyWlLk6GJQsqaUBKTNV-1" source="1ykxo2CiMoOQxjhd-uY3-29" target="1ykxo2CiMoOQxjhd-uY3-34">
          <mxGeometry relative="1" as="geometry" />
        </mxCell>
        <mxCell id="1ykxo2CiMoOQxjhd-uY3-29" value="CLIENTES" style="rounded=0;whiteSpace=wrap;html=1;" vertex="1" parent="WIyWlLk6GJQsqaUBKTNV-1">
          <mxGeometry x="330" y="350" width="120" height="60" as="geometry" />
        </mxCell>
        <mxCell id="1ykxo2CiMoOQxjhd-uY3-30" value="&lt;u&gt;NUMERO_POLIZA&lt;/u&gt;" style="ellipse;whiteSpace=wrap;html=1;" vertex="1" parent="WIyWlLk6GJQsqaUBKTNV-1">
          <mxGeometry x="190" y="90" width="130" height="50" as="geometry" />
        </mxCell>
        <mxCell id="1ykxo2CiMoOQxjhd-uY3-31" value="COBERTURA" style="ellipse;whiteSpace=wrap;html=1;" vertex="1" parent="WIyWlLk6GJQsqaUBKTNV-1">
          <mxGeometry x="335" y="40" width="110" height="50" as="geometry" />
        </mxCell>
        <mxCell id="1ykxo2CiMoOQxjhd-uY3-32" value="PRIMA" style="ellipse;whiteSpace=wrap;html=1;" vertex="1" parent="WIyWlLk6GJQsqaUBKTNV-1">
          <mxGeometry x="450" y="80" width="100" height="50" as="geometry" />
        </mxCell>
        <mxCell id="1ykxo2CiMoOQxjhd-uY3-33" value="NOMBRE" style="ellipse;whiteSpace=wrap;html=1;" vertex="1" parent="WIyWlLk6GJQsqaUBKTNV-1">
          <mxGeometry x="130" y="310" width="90" height="40" as="geometry" />
        </mxCell>
        <mxCell id="1ykxo2CiMoOQxjhd-uY3-34" value="&lt;u&gt;CODIGO&lt;/u&gt;" style="ellipse;whiteSpace=wrap;html=1;" vertex="1" parent="WIyWlLk6GJQsqaUBKTNV-1">
          <mxGeometry x="170" y="380" width="90" height="50" as="geometry" />
        </mxCell>
        <mxCell id="1ykxo2CiMoOQxjhd-uY3-37" style="rounded=0;orthogonalLoop=1;jettySize=auto;html=1;exitX=0.5;exitY=1;exitDx=0;exitDy=0;entryX=0.5;entryY=0;entryDx=0;entryDy=0;endArrow=oval;endFill=0;" edge="1" parent="WIyWlLk6GJQsqaUBKTNV-1" source="1ykxo2CiMoOQxjhd-uY3-35" target="1ykxo2CiMoOQxjhd-uY3-29">
          <mxGeometry relative="1" as="geometry" />
        </mxCell>
        <mxCell id="1ykxo2CiMoOQxjhd-uY3-35" value="OFRECE" style="rhombus;whiteSpace=wrap;html=1;" vertex="1" parent="WIyWlLk6GJQsqaUBKTNV-1">
          <mxGeometry x="322.5" y="250" width="135" height="50" as="geometry" />
        </mxCell>
        <mxCell id="1ykxo2CiMoOQxjhd-uY3-43" value="(1:N)" style="text;html=1;strokeColor=none;fillColor=none;align=center;verticalAlign=middle;whiteSpace=wrap;rounded=0;" vertex="1" parent="WIyWlLk6GJQsqaUBKTNV-1">
          <mxGeometry x="397.5" y="320" width="60" height="30" as="geometry" />
        </mxCell>
        <mxCell id="1ykxo2CiMoOQxjhd-uY3-44" value="(1:N)" style="text;html=1;strokeColor=none;fillColor=none;align=center;verticalAlign=middle;whiteSpace=wrap;rounded=0;" vertex="1" parent="WIyWlLk6GJQsqaUBKTNV-1">
          <mxGeometry x="390" y="200" width="60" height="30" as="geometry" />
        </mxCell>
        <mxCell id="1ykxo2CiMoOQxjhd-uY3-45" value="&lt;b&gt;N:1&lt;/b&gt;" style="text;html=1;strokeColor=none;fillColor=none;align=center;verticalAlign=middle;whiteSpace=wrap;rounded=0;" vertex="1" parent="WIyWlLk6GJQsqaUBKTNV-1">
          <mxGeometry x="445" y="260" width="60" height="30" as="geometry" />
        </mxCell>
      </root>
    </mxGraphModel>
  </diagram>
  <diagram id="Jro54OeZkS4Hd3LxscQu" name="PÃ¡gina-2">
    <mxGraphModel dx="880" dy="452" grid="1" gridSize="10" guides="1" tooltips="1" connect="1" arrows="1" fold="1" page="1" pageScale="1" pageWidth="827" pageHeight="1169" math="0" shadow="0">
      <root>
        <mxCell id="0" />
        <mxCell id="1" parent="0" />
        <mxCell id="g0K0DCqg2AORVR0u5Nl0-6" style="edgeStyle=orthogonalEdgeStyle;rounded=0;orthogonalLoop=1;jettySize=auto;html=1;exitX=1;exitY=0.5;exitDx=0;exitDy=0;" edge="1" parent="1" source="g0K0DCqg2AORVR0u5Nl0-1" target="g0K0DCqg2AORVR0u5Nl0-5">
          <mxGeometry relative="1" as="geometry" />
        </mxCell>
        <mxCell id="I6zlaeVqeT1t9DGN7fJP-2" style="edgeStyle=orthogonalEdgeStyle;curved=1;rounded=0;orthogonalLoop=1;jettySize=auto;html=1;exitX=0.5;exitY=1;exitDx=0;exitDy=0;entryX=0.5;entryY=0;entryDx=0;entryDy=0;" edge="1" parent="1" source="g0K0DCqg2AORVR0u5Nl0-1" target="I6zlaeVqeT1t9DGN7fJP-1">
          <mxGeometry relative="1" as="geometry" />
        </mxCell>
        <mxCell id="I6zlaeVqeT1t9DGN7fJP-8" style="edgeStyle=orthogonalEdgeStyle;curved=1;rounded=0;orthogonalLoop=1;jettySize=auto;html=1;exitX=1;exitY=1;exitDx=0;exitDy=0;" edge="1" parent="1" source="g0K0DCqg2AORVR0u5Nl0-1" target="I6zlaeVqeT1t9DGN7fJP-7">
          <mxGeometry relative="1" as="geometry" />
        </mxCell>
        <mxCell id="g0K0DCqg2AORVR0u5Nl0-1" value="USUARIOS" style="rounded=0;whiteSpace=wrap;html=1;" vertex="1" parent="1">
          <mxGeometry x="150" y="80" width="120" height="60" as="geometry" />
        </mxCell>
        <mxCell id="g0K0DCqg2AORVR0u5Nl0-2" value="AMIGOS" style="rounded=0;whiteSpace=wrap;html=1;" vertex="1" parent="1">
          <mxGeometry x="530" y="80" width="120" height="60" as="geometry" />
        </mxCell>
        <mxCell id="4EfV-39x1wLUIA2aaies-3" style="edgeStyle=orthogonalEdgeStyle;curved=1;rounded=0;orthogonalLoop=1;jettySize=auto;html=1;exitX=1;exitY=0.5;exitDx=0;exitDy=0;entryX=0.025;entryY=0.725;entryDx=0;entryDy=0;entryPerimeter=0;" edge="1" parent="1" source="g0K0DCqg2AORVR0u5Nl0-3" target="4EfV-39x1wLUIA2aaies-1">
          <mxGeometry relative="1" as="geometry" />
        </mxCell>
        <mxCell id="4EfV-39x1wLUIA2aaies-4" style="edgeStyle=orthogonalEdgeStyle;curved=1;rounded=0;orthogonalLoop=1;jettySize=auto;html=1;exitX=1;exitY=0.75;exitDx=0;exitDy=0;entryX=0;entryY=0.5;entryDx=0;entryDy=0;" edge="1" parent="1" source="g0K0DCqg2AORVR0u5Nl0-3" target="4EfV-39x1wLUIA2aaies-2">
          <mxGeometry relative="1" as="geometry" />
        </mxCell>
        <mxCell id="g0K0DCqg2AORVR0u5Nl0-3" value="GRUPOS" style="rounded=0;whiteSpace=wrap;html=1;" vertex="1" parent="1">
          <mxGeometry x="510" y="300" width="120" height="60" as="geometry" />
        </mxCell>
        <mxCell id="g0K0DCqg2AORVR0u5Nl0-4" value="MENSAJES" style="rounded=0;whiteSpace=wrap;html=1;" vertex="1" parent="1">
          <mxGeometry x="150" y="310" width="120" height="60" as="geometry" />
        </mxCell>
        <mxCell id="g0K0DCqg2AORVR0u5Nl0-7" style="edgeStyle=orthogonalEdgeStyle;rounded=0;orthogonalLoop=1;jettySize=auto;html=1;exitX=1;exitY=0.5;exitDx=0;exitDy=0;entryX=0;entryY=0.5;entryDx=0;entryDy=0;" edge="1" parent="1" source="g0K0DCqg2AORVR0u5Nl0-5" target="g0K0DCqg2AORVR0u5Nl0-2">
          <mxGeometry relative="1" as="geometry" />
        </mxCell>
        <mxCell id="g0K0DCqg2AORVR0u5Nl0-5" value="TIENEN" style="rhombus;whiteSpace=wrap;html=1;" vertex="1" parent="1">
          <mxGeometry x="350" y="85" width="80" height="50" as="geometry" />
        </mxCell>
        <mxCell id="g0K0DCqg2AORVR0u5Nl0-8" value="(1:1)" style="text;html=1;strokeColor=none;fillColor=none;align=center;verticalAlign=middle;whiteSpace=wrap;rounded=0;" vertex="1" parent="1">
          <mxGeometry x="270" y="70" width="60" height="30" as="geometry" />
        </mxCell>
        <mxCell id="g0K0DCqg2AORVR0u5Nl0-9" value="0:N" style="text;html=1;strokeColor=none;fillColor=none;align=center;verticalAlign=middle;whiteSpace=wrap;rounded=0;" vertex="1" parent="1">
          <mxGeometry x="470" y="70" width="60" height="30" as="geometry" />
        </mxCell>
        <mxCell id="g0K0DCqg2AORVR0u5Nl0-10" value="&lt;b&gt;(1:N)&lt;/b&gt;" style="text;html=1;strokeColor=none;fillColor=none;align=center;verticalAlign=middle;whiteSpace=wrap;rounded=0;" vertex="1" parent="1">
          <mxGeometry x="360" y="50" width="60" height="30" as="geometry" />
        </mxCell>
        <mxCell id="I6zlaeVqeT1t9DGN7fJP-3" style="edgeStyle=orthogonalEdgeStyle;curved=1;rounded=0;orthogonalLoop=1;jettySize=auto;html=1;exitX=0.5;exitY=1;exitDx=0;exitDy=0;entryX=0.5;entryY=0;entryDx=0;entryDy=0;" edge="1" parent="1" source="I6zlaeVqeT1t9DGN7fJP-1" target="g0K0DCqg2AORVR0u5Nl0-4">
          <mxGeometry relative="1" as="geometry" />
        </mxCell>
        <mxCell id="I6zlaeVqeT1t9DGN7fJP-1" value="publicar" style="rhombus;whiteSpace=wrap;html=1;" vertex="1" parent="1">
          <mxGeometry x="155" y="190" width="110" height="70" as="geometry" />
        </mxCell>
        <mxCell id="I6zlaeVqeT1t9DGN7fJP-4" value="(0:N)" style="text;html=1;strokeColor=none;fillColor=none;align=center;verticalAlign=middle;whiteSpace=wrap;rounded=0;" vertex="1" parent="1">
          <mxGeometry x="155" y="280" width="60" height="30" as="geometry" />
        </mxCell>
        <mxCell id="I6zlaeVqeT1t9DGN7fJP-5" value="1:1" style="text;html=1;strokeColor=none;fillColor=none;align=center;verticalAlign=middle;whiteSpace=wrap;rounded=0;" vertex="1" parent="1">
          <mxGeometry x="150" y="140" width="60" height="30" as="geometry" />
        </mxCell>
        <mxCell id="I6zlaeVqeT1t9DGN7fJP-6" value="1:N" style="text;html=1;strokeColor=none;fillColor=none;align=center;verticalAlign=middle;whiteSpace=wrap;rounded=0;" vertex="1" parent="1">
          <mxGeometry x="100" y="210" width="60" height="30" as="geometry" />
        </mxCell>
        <mxCell id="I6zlaeVqeT1t9DGN7fJP-9" style="edgeStyle=orthogonalEdgeStyle;curved=1;rounded=0;orthogonalLoop=1;jettySize=auto;html=1;exitX=0.5;exitY=1;exitDx=0;exitDy=0;entryX=0.5;entryY=0;entryDx=0;entryDy=0;" edge="1" parent="1" source="I6zlaeVqeT1t9DGN7fJP-7" target="g0K0DCqg2AORVR0u5Nl0-3">
          <mxGeometry relative="1" as="geometry" />
        </mxCell>
        <mxCell id="I6zlaeVqeT1t9DGN7fJP-7" value="unirse" style="rhombus;whiteSpace=wrap;html=1;" vertex="1" parent="1">
          <mxGeometry x="335" y="190" width="110" height="55" as="geometry" />
        </mxCell>
        <mxCell id="I6zlaeVqeT1t9DGN7fJP-10" value="(0:N)" style="text;html=1;strokeColor=none;fillColor=none;align=center;verticalAlign=middle;whiteSpace=wrap;rounded=0;" vertex="1" parent="1">
          <mxGeometry x="580" y="270" width="60" height="30" as="geometry" />
        </mxCell>
        <mxCell id="I6zlaeVqeT1t9DGN7fJP-11" value="1:N" style="text;html=1;strokeColor=none;fillColor=none;align=center;verticalAlign=middle;whiteSpace=wrap;rounded=0;" vertex="1" parent="1">
          <mxGeometry x="290" y="140" width="60" height="30" as="geometry" />
        </mxCell>
        <mxCell id="I6zlaeVqeT1t9DGN7fJP-12" value="N:M" style="text;html=1;strokeColor=none;fillColor=none;align=center;verticalAlign=middle;whiteSpace=wrap;rounded=0;" vertex="1" parent="1">
          <mxGeometry x="440" y="203" width="60" height="30" as="geometry" />
        </mxCell>
        <mxCell id="4EfV-39x1wLUIA2aaies-1" value="nombre" style="ellipse;whiteSpace=wrap;html=1;" vertex="1" parent="1">
          <mxGeometry x="670" y="270" width="80" height="40" as="geometry" />
        </mxCell>
        <mxCell id="4EfV-39x1wLUIA2aaies-2" value="descripcion" style="ellipse;whiteSpace=wrap;html=1;" vertex="1" parent="1">
          <mxGeometry x="670" y="330" width="80" height="50" as="geometry" />
        </mxCell>
      </root>
    </mxGraphModel>
  </diagram>
  <diagram id="mRDliALM3GtDQTBvCvNO" name="ejercicio8">
    <mxGraphModel dx="880" dy="452" grid="1" gridSize="10" guides="1" tooltips="1" connect="1" arrows="0" fold="1" page="1" pageScale="1" pageWidth="827" pageHeight="1169" math="0" shadow="0">
      <root>
        <mxCell id="0" />
        <mxCell id="1" parent="0" />
        <mxCell id="UWeHKwZC-KAOtdft5iLf-10" style="edgeStyle=orthogonalEdgeStyle;rounded=0;orthogonalLoop=1;jettySize=auto;html=1;exitX=1;exitY=0.5;exitDx=0;exitDy=0;entryX=0;entryY=0.5;entryDx=0;entryDy=0;endArrow=oval;endFill=0;" edge="1" parent="1" source="UWeHKwZC-KAOtdft5iLf-1" target="UWeHKwZC-KAOtdft5iLf-9">
          <mxGeometry relative="1" as="geometry" />
        </mxCell>
        <mxCell id="UWeHKwZC-KAOtdft5iLf-15" style="edgeStyle=orthogonalEdgeStyle;rounded=0;orthogonalLoop=1;jettySize=auto;html=1;exitX=0;exitY=0.5;exitDx=0;exitDy=0;entryX=1;entryY=0.5;entryDx=0;entryDy=0;endArrow=oval;endFill=0;" edge="1" parent="1" source="UWeHKwZC-KAOtdft5iLf-1" target="UWeHKwZC-KAOtdft5iLf-6">
          <mxGeometry relative="1" as="geometry" />
        </mxCell>
        <mxCell id="UWeHKwZC-KAOtdft5iLf-1" value="HOTELES" style="rounded=0;whiteSpace=wrap;html=1;" vertex="1" parent="1">
          <mxGeometry x="340" y="380" width="120" height="60" as="geometry" />
        </mxCell>
        <mxCell id="UWeHKwZC-KAOtdft5iLf-24" style="edgeStyle=orthogonalEdgeStyle;rounded=0;orthogonalLoop=1;jettySize=auto;html=1;exitX=0.5;exitY=0;exitDx=0;exitDy=0;entryX=0.5;entryY=1;entryDx=0;entryDy=0;endArrow=oval;endFill=0;" edge="1" parent="1" source="UWeHKwZC-KAOtdft5iLf-2" target="UWeHKwZC-KAOtdft5iLf-19">
          <mxGeometry relative="1" as="geometry" />
        </mxCell>
        <mxCell id="UWeHKwZC-KAOtdft5iLf-26" style="edgeStyle=orthogonalEdgeStyle;rounded=0;orthogonalLoop=1;jettySize=auto;html=1;exitX=0;exitY=0.5;exitDx=0;exitDy=0;entryX=1;entryY=0.5;entryDx=0;entryDy=0;endArrow=oval;endFill=0;" edge="1" parent="1" source="UWeHKwZC-KAOtdft5iLf-2" target="UWeHKwZC-KAOtdft5iLf-25">
          <mxGeometry relative="1" as="geometry" />
        </mxCell>
        <mxCell id="DOXnPjTLAi97DoStqlpc-5" style="edgeStyle=orthogonalEdgeStyle;rounded=0;orthogonalLoop=1;jettySize=auto;html=1;exitX=1;exitY=0.25;exitDx=0;exitDy=0;entryX=0;entryY=0.5;entryDx=0;entryDy=0;endArrow=none;endFill=0;" edge="1" parent="1" source="UWeHKwZC-KAOtdft5iLf-2" target="DOXnPjTLAi97DoStqlpc-1">
          <mxGeometry relative="1" as="geometry" />
        </mxCell>
        <mxCell id="DOXnPjTLAi97DoStqlpc-6" style="edgeStyle=orthogonalEdgeStyle;rounded=0;orthogonalLoop=1;jettySize=auto;html=1;exitX=1;exitY=0.5;exitDx=0;exitDy=0;entryX=0;entryY=0.5;entryDx=0;entryDy=0;endArrow=none;endFill=0;" edge="1" parent="1" source="UWeHKwZC-KAOtdft5iLf-2" target="DOXnPjTLAi97DoStqlpc-2">
          <mxGeometry relative="1" as="geometry" />
        </mxCell>
        <mxCell id="DOXnPjTLAi97DoStqlpc-7" style="edgeStyle=orthogonalEdgeStyle;rounded=0;orthogonalLoop=1;jettySize=auto;html=1;exitX=1;exitY=0.75;exitDx=0;exitDy=0;entryX=0;entryY=0.5;entryDx=0;entryDy=0;endArrow=none;endFill=0;" edge="1" parent="1" source="UWeHKwZC-KAOtdft5iLf-2" target="DOXnPjTLAi97DoStqlpc-3">
          <mxGeometry relative="1" as="geometry" />
        </mxCell>
        <mxCell id="UWeHKwZC-KAOtdft5iLf-2" value="HABITACIONES" style="rounded=0;whiteSpace=wrap;html=1;" vertex="1" parent="1">
          <mxGeometry x="260" y="200" width="120" height="60" as="geometry" />
        </mxCell>
        <mxCell id="UWeHKwZC-KAOtdft5iLf-3" value="TIPO DE HABITACIONES" style="rounded=0;whiteSpace=wrap;html=1;" vertex="1" parent="1">
          <mxGeometry x="10" y="200" width="120" height="60" as="geometry" />
        </mxCell>
        <mxCell id="UWeHKwZC-KAOtdft5iLf-4" value="RESERVAS" style="rounded=0;whiteSpace=wrap;html=1;" vertex="1" parent="1">
          <mxGeometry x="440" y="60" width="120" height="60" as="geometry" />
        </mxCell>
        <mxCell id="UWeHKwZC-KAOtdft5iLf-14" style="edgeStyle=orthogonalEdgeStyle;rounded=0;orthogonalLoop=1;jettySize=auto;html=1;exitX=0.5;exitY=0;exitDx=0;exitDy=0;entryX=0.5;entryY=1;entryDx=0;entryDy=0;endArrow=oval;endFill=0;" edge="1" parent="1" source="UWeHKwZC-KAOtdft5iLf-5" target="UWeHKwZC-KAOtdft5iLf-12">
          <mxGeometry relative="1" as="geometry" />
        </mxCell>
        <mxCell id="UWeHKwZC-KAOtdft5iLf-5" value="CLIENTES" style="rounded=0;whiteSpace=wrap;html=1;" vertex="1" parent="1">
          <mxGeometry x="560" y="240" width="120" height="60" as="geometry" />
        </mxCell>
        <mxCell id="UWeHKwZC-KAOtdft5iLf-31" style="edgeStyle=orthogonalEdgeStyle;rounded=0;orthogonalLoop=1;jettySize=auto;html=1;entryX=0.5;entryY=1;entryDx=0;entryDy=0;endArrow=oval;endFill=0;" edge="1" parent="1" target="UWeHKwZC-KAOtdft5iLf-3">
          <mxGeometry relative="1" as="geometry">
            <mxPoint x="70" y="300" as="sourcePoint" />
          </mxGeometry>
        </mxCell>
        <mxCell id="UWeHKwZC-KAOtdft5iLf-6" value="tienen" style="rhombus;whiteSpace=wrap;html=1;" vertex="1" parent="1">
          <mxGeometry x="130" y="385" width="100" height="50" as="geometry" />
        </mxCell>
        <mxCell id="UWeHKwZC-KAOtdft5iLf-11" style="edgeStyle=orthogonalEdgeStyle;rounded=0;orthogonalLoop=1;jettySize=auto;html=1;exitX=0.5;exitY=0;exitDx=0;exitDy=0;entryX=0.5;entryY=1;entryDx=0;entryDy=0;endArrow=oval;endFill=0;" edge="1" parent="1" source="UWeHKwZC-KAOtdft5iLf-9" target="UWeHKwZC-KAOtdft5iLf-5">
          <mxGeometry relative="1" as="geometry" />
        </mxCell>
        <mxCell id="UWeHKwZC-KAOtdft5iLf-9" value="hospedan" style="rhombus;whiteSpace=wrap;html=1;" vertex="1" parent="1">
          <mxGeometry x="575" y="385" width="90" height="50" as="geometry" />
        </mxCell>
        <mxCell id="UWeHKwZC-KAOtdft5iLf-13" style="edgeStyle=orthogonalEdgeStyle;rounded=0;orthogonalLoop=1;jettySize=auto;html=1;exitX=0.5;exitY=0;exitDx=0;exitDy=0;entryX=1;entryY=0.5;entryDx=0;entryDy=0;endArrow=oval;endFill=0;" edge="1" parent="1" source="UWeHKwZC-KAOtdft5iLf-12" target="UWeHKwZC-KAOtdft5iLf-4">
          <mxGeometry relative="1" as="geometry" />
        </mxCell>
        <mxCell id="UWeHKwZC-KAOtdft5iLf-12" value="hacen" style="rhombus;whiteSpace=wrap;html=1;" vertex="1" parent="1">
          <mxGeometry x="575" y="140" width="90" height="50" as="geometry" />
        </mxCell>
        <mxCell id="UWeHKwZC-KAOtdft5iLf-16" value="&lt;b&gt;N:M&lt;/b&gt;" style="text;html=1;strokeColor=none;fillColor=none;align=center;verticalAlign=middle;whiteSpace=wrap;rounded=0;" vertex="1" parent="1">
          <mxGeometry x="200" y="370" width="60" height="30" as="geometry" />
        </mxCell>
        <mxCell id="UWeHKwZC-KAOtdft5iLf-17" value="&lt;b&gt;N:M&lt;/b&gt;" style="text;html=1;strokeColor=none;fillColor=none;align=center;verticalAlign=middle;whiteSpace=wrap;rounded=0;" vertex="1" parent="1">
          <mxGeometry x="540" y="370" width="60" height="30" as="geometry" />
        </mxCell>
        <mxCell id="UWeHKwZC-KAOtdft5iLf-18" value="&lt;b&gt;1:N&lt;/b&gt;" style="text;html=1;strokeColor=none;fillColor=none;align=center;verticalAlign=middle;whiteSpace=wrap;rounded=0;" vertex="1" parent="1">
          <mxGeometry x="530" y="150" width="60" height="30" as="geometry" />
        </mxCell>
        <mxCell id="UWeHKwZC-KAOtdft5iLf-21" style="edgeStyle=orthogonalEdgeStyle;rounded=0;orthogonalLoop=1;jettySize=auto;html=1;exitX=1;exitY=0.5;exitDx=0;exitDy=0;entryX=0;entryY=0.5;entryDx=0;entryDy=0;endArrow=oval;endFill=0;" edge="1" parent="1" source="UWeHKwZC-KAOtdft5iLf-19" target="UWeHKwZC-KAOtdft5iLf-4">
          <mxGeometry relative="1" as="geometry" />
        </mxCell>
        <mxCell id="UWeHKwZC-KAOtdft5iLf-19" value="incluye" style="rhombus;whiteSpace=wrap;html=1;" vertex="1" parent="1">
          <mxGeometry x="130" y="60" width="100" height="60" as="geometry" />
        </mxCell>
        <mxCell id="UWeHKwZC-KAOtdft5iLf-22" value="&lt;b&gt;N:M&lt;/b&gt;" style="text;html=1;strokeColor=none;fillColor=none;align=center;verticalAlign=middle;whiteSpace=wrap;rounded=0;" vertex="1" parent="1">
          <mxGeometry x="110" y="50" width="60" height="30" as="geometry" />
        </mxCell>
        <mxCell id="UWeHKwZC-KAOtdft5iLf-27" style="edgeStyle=orthogonalEdgeStyle;rounded=0;orthogonalLoop=1;jettySize=auto;html=1;exitX=0;exitY=0.5;exitDx=0;exitDy=0;entryX=1;entryY=0.5;entryDx=0;entryDy=0;endArrow=oval;endFill=0;" edge="1" parent="1" source="UWeHKwZC-KAOtdft5iLf-25" target="UWeHKwZC-KAOtdft5iLf-3">
          <mxGeometry relative="1" as="geometry" />
        </mxCell>
        <mxCell id="UWeHKwZC-KAOtdft5iLf-25" value="tienen" style="rhombus;whiteSpace=wrap;html=1;" vertex="1" parent="1">
          <mxGeometry x="160" y="205" width="70" height="50" as="geometry" />
        </mxCell>
        <mxCell id="UWeHKwZC-KAOtdft5iLf-30" value="&lt;b&gt;N:1&lt;/b&gt;" style="text;html=1;strokeColor=none;fillColor=none;align=center;verticalAlign=middle;whiteSpace=wrap;rounded=0;" vertex="1" parent="1">
          <mxGeometry x="165" y="175" width="60" height="30" as="geometry" />
        </mxCell>
        <mxCell id="UWeHKwZC-KAOtdft5iLf-33" value="(0:N)" style="text;html=1;strokeColor=none;fillColor=none;align=center;verticalAlign=middle;whiteSpace=wrap;rounded=0;" vertex="1" parent="1">
          <mxGeometry x="450" y="380" width="60" height="30" as="geometry" />
        </mxCell>
        <mxCell id="UWeHKwZC-KAOtdft5iLf-34" value="(1:N)" style="text;html=1;strokeColor=none;fillColor=none;align=center;verticalAlign=middle;whiteSpace=wrap;rounded=0;" vertex="1" parent="1">
          <mxGeometry x="560" y="300" width="60" height="30" as="geometry" />
        </mxCell>
        <mxCell id="UWeHKwZC-KAOtdft5iLf-35" value="(1:1)" style="text;html=1;strokeColor=none;fillColor=none;align=center;verticalAlign=middle;whiteSpace=wrap;rounded=0;" vertex="1" parent="1">
          <mxGeometry x="550" y="60" width="60" height="30" as="geometry" />
        </mxCell>
        <mxCell id="UWeHKwZC-KAOtdft5iLf-36" value="(1:N)" style="text;html=1;strokeColor=none;fillColor=none;align=center;verticalAlign=middle;whiteSpace=wrap;rounded=0;" vertex="1" parent="1">
          <mxGeometry x="560" y="210" width="60" height="30" as="geometry" />
        </mxCell>
        <mxCell id="UWeHKwZC-KAOtdft5iLf-37" value="(1:N)" style="text;html=1;strokeColor=none;fillColor=none;align=center;verticalAlign=middle;whiteSpace=wrap;rounded=0;" vertex="1" parent="1">
          <mxGeometry x="320" y="170" width="60" height="30" as="geometry" />
        </mxCell>
        <mxCell id="UWeHKwZC-KAOtdft5iLf-38" value="(1:N)" style="text;html=1;strokeColor=none;fillColor=none;align=center;verticalAlign=middle;whiteSpace=wrap;rounded=0;" vertex="1" parent="1">
          <mxGeometry x="390" y="60" width="60" height="30" as="geometry" />
        </mxCell>
        <mxCell id="UWeHKwZC-KAOtdft5iLf-39" value="(1:N)" style="text;html=1;strokeColor=none;fillColor=none;align=center;verticalAlign=middle;whiteSpace=wrap;rounded=0;" vertex="1" parent="1">
          <mxGeometry x="120" y="200" width="60" height="30" as="geometry" />
        </mxCell>
        <mxCell id="UWeHKwZC-KAOtdft5iLf-40" value="(1:1)" style="text;html=1;strokeColor=none;fillColor=none;align=center;verticalAlign=middle;whiteSpace=wrap;rounded=0;" vertex="1" parent="1">
          <mxGeometry x="210" y="200" width="60" height="30" as="geometry" />
        </mxCell>
        <mxCell id="UWeHKwZC-KAOtdft5iLf-41" value="(1:N)" style="text;html=1;strokeColor=none;fillColor=none;align=center;verticalAlign=middle;whiteSpace=wrap;rounded=0;" vertex="1" parent="1">
          <mxGeometry x="290" y="380" width="60" height="30" as="geometry" />
        </mxCell>
        <mxCell id="UWeHKwZC-KAOtdft5iLf-42" value="" style="edgeStyle=orthogonalEdgeStyle;rounded=0;orthogonalLoop=1;jettySize=auto;html=1;exitX=0.5;exitY=0;exitDx=0;exitDy=0;endArrow=oval;endFill=0;" edge="1" parent="1" source="UWeHKwZC-KAOtdft5iLf-6">
          <mxGeometry relative="1" as="geometry">
            <mxPoint x="180" y="385" as="sourcePoint" />
            <mxPoint x="70" y="260" as="targetPoint" />
          </mxGeometry>
        </mxCell>
        <mxCell id="UWeHKwZC-KAOtdft5iLf-44" value="(0:N)" style="text;html=1;strokeColor=none;fillColor=none;align=center;verticalAlign=middle;whiteSpace=wrap;rounded=0;" vertex="1" parent="1">
          <mxGeometry x="70" y="260" width="60" height="30" as="geometry" />
        </mxCell>
        <mxCell id="DOXnPjTLAi97DoStqlpc-1" value="&lt;u&gt;numero&lt;/u&gt;" style="ellipse;whiteSpace=wrap;html=1;" vertex="1" parent="1">
          <mxGeometry x="420" y="165" width="80" height="40" as="geometry" />
        </mxCell>
        <mxCell id="DOXnPjTLAi97DoStqlpc-2" value="capacidad" style="ellipse;whiteSpace=wrap;html=1;" vertex="1" parent="1">
          <mxGeometry x="420" y="210" width="90" height="35" as="geometry" />
        </mxCell>
        <mxCell id="DOXnPjTLAi97DoStqlpc-3" value="precio" style="ellipse;whiteSpace=wrap;html=1;" vertex="1" parent="1">
          <mxGeometry x="420" y="255" width="70" height="30" as="geometry" />
        </mxCell>
      </root>
    </mxGraphModel>
  </diagram>
  <diagram id="69c3raw1qbNKhJz86dJC" name="PÃ¡gina-4">
    <mxGraphModel dx="880" dy="452" grid="1" gridSize="10" guides="1" tooltips="1" connect="1" arrows="1" fold="1" page="1" pageScale="1" pageWidth="827" pageHeight="1169" math="0" shadow="0">
      <root>
        <mxCell id="0" />
        <mxCell id="1" parent="0" />
        <mxCell id="0-a3Nz_PwPRoO9C5vC6Q-4" style="edgeStyle=orthogonalEdgeStyle;curved=1;rounded=0;orthogonalLoop=1;jettySize=auto;html=1;exitX=1;exitY=0.5;exitDx=0;exitDy=0;entryX=0;entryY=0.5;entryDx=0;entryDy=0;" edge="1" parent="1" source="v3wasVuNSmPIaBYcCdYz-1" target="0-a3Nz_PwPRoO9C5vC6Q-3">
          <mxGeometry relative="1" as="geometry" />
        </mxCell>
        <mxCell id="v3wasVuNSmPIaBYcCdYz-1" value="MARCAS" style="rounded=0;whiteSpace=wrap;html=1;" vertex="1" parent="1">
          <mxGeometry x="150" y="80" width="120" height="60" as="geometry" />
        </mxCell>
        <mxCell id="0-a3Nz_PwPRoO9C5vC6Q-13" style="edgeStyle=orthogonalEdgeStyle;curved=1;rounded=0;orthogonalLoop=1;jettySize=auto;html=1;exitX=1;exitY=0.25;exitDx=0;exitDy=0;entryX=0;entryY=0.5;entryDx=0;entryDy=0;" edge="1" parent="1" source="v3wasVuNSmPIaBYcCdYz-2" target="0-a3Nz_PwPRoO9C5vC6Q-9">
          <mxGeometry relative="1" as="geometry" />
        </mxCell>
        <mxCell id="0-a3Nz_PwPRoO9C5vC6Q-14" style="edgeStyle=orthogonalEdgeStyle;curved=1;rounded=0;orthogonalLoop=1;jettySize=auto;html=1;exitX=1;exitY=0.5;exitDx=0;exitDy=0;entryX=0;entryY=0.5;entryDx=0;entryDy=0;" edge="1" parent="1" source="v3wasVuNSmPIaBYcCdYz-2" target="0-a3Nz_PwPRoO9C5vC6Q-12">
          <mxGeometry relative="1" as="geometry" />
        </mxCell>
        <mxCell id="0-a3Nz_PwPRoO9C5vC6Q-15" style="edgeStyle=orthogonalEdgeStyle;curved=1;rounded=0;orthogonalLoop=1;jettySize=auto;html=1;exitX=1;exitY=0.75;exitDx=0;exitDy=0;entryX=0;entryY=0.5;entryDx=0;entryDy=0;" edge="1" parent="1" source="v3wasVuNSmPIaBYcCdYz-2" target="0-a3Nz_PwPRoO9C5vC6Q-11">
          <mxGeometry relative="1" as="geometry" />
        </mxCell>
        <mxCell id="v3wasVuNSmPIaBYcCdYz-2" value="MODELOS" style="rounded=0;whiteSpace=wrap;html=1;" vertex="1" parent="1">
          <mxGeometry x="520" y="80" width="120" height="60" as="geometry" />
        </mxCell>
        <mxCell id="0-a3Nz_PwPRoO9C5vC6Q-17" style="edgeStyle=orthogonalEdgeStyle;curved=1;rounded=0;orthogonalLoop=1;jettySize=auto;html=1;exitX=0.5;exitY=0;exitDx=0;exitDy=0;entryX=0.5;entryY=1;entryDx=0;entryDy=0;" edge="1" parent="1" source="0-a3Nz_PwPRoO9C5vC6Q-2" target="0-a3Nz_PwPRoO9C5vC6Q-16">
          <mxGeometry relative="1" as="geometry" />
        </mxCell>
        <mxCell id="0-a3Nz_PwPRoO9C5vC6Q-2" value="CLIENTES" style="rounded=0;whiteSpace=wrap;html=1;" vertex="1" parent="1">
          <mxGeometry x="520" y="290" width="120" height="60" as="geometry" />
        </mxCell>
        <mxCell id="0-a3Nz_PwPRoO9C5vC6Q-5" style="edgeStyle=orthogonalEdgeStyle;curved=1;rounded=0;orthogonalLoop=1;jettySize=auto;html=1;exitX=1;exitY=0.5;exitDx=0;exitDy=0;entryX=0;entryY=0.5;entryDx=0;entryDy=0;" edge="1" parent="1" source="0-a3Nz_PwPRoO9C5vC6Q-3" target="v3wasVuNSmPIaBYcCdYz-2">
          <mxGeometry relative="1" as="geometry" />
        </mxCell>
        <mxCell id="0-a3Nz_PwPRoO9C5vC6Q-3" value="tienen" style="rhombus;whiteSpace=wrap;html=1;" vertex="1" parent="1">
          <mxGeometry x="350" y="85" width="80" height="50" as="geometry" />
        </mxCell>
        <mxCell id="0-a3Nz_PwPRoO9C5vC6Q-6" value="(1:N)" style="text;html=1;strokeColor=none;fillColor=none;align=center;verticalAlign=middle;whiteSpace=wrap;rounded=0;" vertex="1" parent="1">
          <mxGeometry x="470" y="80" width="60" height="30" as="geometry" />
        </mxCell>
        <mxCell id="0-a3Nz_PwPRoO9C5vC6Q-7" value="(1:1)" style="text;html=1;strokeColor=none;fillColor=none;align=center;verticalAlign=middle;whiteSpace=wrap;rounded=0;" vertex="1" parent="1">
          <mxGeometry x="270" y="80" width="60" height="30" as="geometry" />
        </mxCell>
        <mxCell id="0-a3Nz_PwPRoO9C5vC6Q-8" value="&lt;b&gt;1:N&lt;/b&gt;" style="text;html=1;strokeColor=none;fillColor=none;align=center;verticalAlign=middle;whiteSpace=wrap;rounded=0;" vertex="1" parent="1">
          <mxGeometry x="360" y="55" width="60" height="30" as="geometry" />
        </mxCell>
        <mxCell id="0-a3Nz_PwPRoO9C5vC6Q-9" value="nombre" style="ellipse;whiteSpace=wrap;html=1;" vertex="1" parent="1">
          <mxGeometry x="680" y="40" width="70" height="40" as="geometry" />
        </mxCell>
        <mxCell id="0-a3Nz_PwPRoO9C5vC6Q-11" value="especificacion" style="ellipse;whiteSpace=wrap;html=1;" vertex="1" parent="1">
          <mxGeometry x="680" y="130" width="90" height="40" as="geometry" />
        </mxCell>
        <mxCell id="0-a3Nz_PwPRoO9C5vC6Q-12" value="precio" style="ellipse;whiteSpace=wrap;html=1;" vertex="1" parent="1">
          <mxGeometry x="680" y="85" width="70" height="35" as="geometry" />
        </mxCell>
        <mxCell id="0-a3Nz_PwPRoO9C5vC6Q-18" style="edgeStyle=orthogonalEdgeStyle;curved=1;rounded=0;orthogonalLoop=1;jettySize=auto;html=1;exitX=0.5;exitY=0;exitDx=0;exitDy=0;entryX=0.5;entryY=1;entryDx=0;entryDy=0;" edge="1" parent="1" source="0-a3Nz_PwPRoO9C5vC6Q-16" target="v3wasVuNSmPIaBYcCdYz-2">
          <mxGeometry relative="1" as="geometry" />
        </mxCell>
        <mxCell id="0-a3Nz_PwPRoO9C5vC6Q-16" value="compra" style="rhombus;whiteSpace=wrap;html=1;" vertex="1" parent="1">
          <mxGeometry x="530" y="190" width="100" height="50" as="geometry" />
        </mxCell>
        <mxCell id="0-a3Nz_PwPRoO9C5vC6Q-19" value="(1:N)" style="text;html=1;strokeColor=none;fillColor=none;align=center;verticalAlign=middle;whiteSpace=wrap;rounded=0;" vertex="1" parent="1">
          <mxGeometry x="520" y="140" width="60" height="30" as="geometry" />
        </mxCell>
        <mxCell id="0-a3Nz_PwPRoO9C5vC6Q-20" value="0:N" style="text;html=1;strokeColor=none;fillColor=none;align=center;verticalAlign=middle;whiteSpace=wrap;rounded=0;" vertex="1" parent="1">
          <mxGeometry x="520" y="260" width="60" height="30" as="geometry" />
        </mxCell>
        <mxCell id="0-a3Nz_PwPRoO9C5vC6Q-21" value="&lt;b&gt;N:M&lt;/b&gt;" style="text;html=1;strokeColor=none;fillColor=none;align=center;verticalAlign=middle;whiteSpace=wrap;rounded=0;" vertex="1" parent="1">
          <mxGeometry x="470" y="200" width="60" height="30" as="geometry" />
        </mxCell>
        <mxCell id="DiDLshJRbQblHHlzcUqj-1" value="COMPRAS" style="rounded=0;whiteSpace=wrap;html=1;" vertex="1" parent="1">
          <mxGeometry x="150" y="290" width="120" height="60" as="geometry" />
        </mxCell>
      </root>
    </mxGraphModel>
  </diagram>
  <diagram id="y2rKoBczwuQu1npu96bp" name="PÃ¡gina-5">
    <mxGraphModel dx="880" dy="452" grid="1" gridSize="10" guides="1" tooltips="1" connect="1" arrows="1" fold="1" page="1" pageScale="1" pageWidth="827" pageHeight="1169" math="0" shadow="0">
      <root>
        <mxCell id="0" />
        <mxCell id="1" parent="0" />
        <mxCell id="5ELvxjMlUlLgitfgHMuI-8" style="edgeStyle=orthogonalEdgeStyle;curved=1;rounded=0;orthogonalLoop=1;jettySize=auto;html=1;exitX=0;exitY=0.5;exitDx=0;exitDy=0;entryX=1;entryY=0.5;entryDx=0;entryDy=0;" edge="1" parent="1" source="5ELvxjMlUlLgitfgHMuI-1" target="5ELvxjMlUlLgitfgHMuI-3">
          <mxGeometry relative="1" as="geometry" />
        </mxCell>
        <mxCell id="5ELvxjMlUlLgitfgHMuI-9" style="edgeStyle=orthogonalEdgeStyle;curved=1;rounded=0;orthogonalLoop=1;jettySize=auto;html=1;exitX=0;exitY=0;exitDx=0;exitDy=0;entryX=1;entryY=1;entryDx=0;entryDy=0;" edge="1" parent="1" source="5ELvxjMlUlLgitfgHMuI-1" target="5ELvxjMlUlLgitfgHMuI-2">
          <mxGeometry relative="1" as="geometry" />
        </mxCell>
        <mxCell id="5ELvxjMlUlLgitfgHMuI-10" style="edgeStyle=orthogonalEdgeStyle;curved=1;rounded=0;orthogonalLoop=1;jettySize=auto;html=1;exitX=0.5;exitY=0;exitDx=0;exitDy=0;entryX=0.5;entryY=1;entryDx=0;entryDy=0;" edge="1" parent="1" source="5ELvxjMlUlLgitfgHMuI-1" target="5ELvxjMlUlLgitfgHMuI-4">
          <mxGeometry relative="1" as="geometry" />
        </mxCell>
        <mxCell id="5ELvxjMlUlLgitfgHMuI-11" style="edgeStyle=orthogonalEdgeStyle;curved=1;rounded=0;orthogonalLoop=1;jettySize=auto;html=1;exitX=1;exitY=0;exitDx=0;exitDy=0;" edge="1" parent="1" source="5ELvxjMlUlLgitfgHMuI-1" target="5ELvxjMlUlLgitfgHMuI-5">
          <mxGeometry relative="1" as="geometry" />
        </mxCell>
        <mxCell id="5ELvxjMlUlLgitfgHMuI-12" style="edgeStyle=orthogonalEdgeStyle;curved=1;rounded=0;orthogonalLoop=1;jettySize=auto;html=1;exitX=1;exitY=0.5;exitDx=0;exitDy=0;entryX=0;entryY=0.5;entryDx=0;entryDy=0;" edge="1" parent="1" source="5ELvxjMlUlLgitfgHMuI-1" target="5ELvxjMlUlLgitfgHMuI-6">
          <mxGeometry relative="1" as="geometry" />
        </mxCell>
        <mxCell id="5ELvxjMlUlLgitfgHMuI-22" style="edgeStyle=orthogonalEdgeStyle;curved=1;rounded=0;orthogonalLoop=1;jettySize=auto;html=1;exitX=0.5;exitY=1;exitDx=0;exitDy=0;" edge="1" parent="1" source="5ELvxjMlUlLgitfgHMuI-1" target="5ELvxjMlUlLgitfgHMuI-21">
          <mxGeometry relative="1" as="geometry" />
        </mxCell>
        <mxCell id="5ELvxjMlUlLgitfgHMuI-1" value="VUELOS" style="rounded=0;whiteSpace=wrap;html=1;" vertex="1" parent="1">
          <mxGeometry x="320" y="90" width="120" height="60" as="geometry" />
        </mxCell>
        <mxCell id="5ELvxjMlUlLgitfgHMuI-2" value="num_vuelo" style="ellipse;whiteSpace=wrap;html=1;" vertex="1" parent="1">
          <mxGeometry x="230" y="10" width="90" height="50" as="geometry" />
        </mxCell>
        <mxCell id="5ELvxjMlUlLgitfgHMuI-3" value="aerolineas" style="ellipse;whiteSpace=wrap;html=1;" vertex="1" parent="1">
          <mxGeometry x="170" y="70" width="85" height="50" as="geometry" />
        </mxCell>
        <mxCell id="5ELvxjMlUlLgitfgHMuI-4" value="origen" style="ellipse;whiteSpace=wrap;html=1;" vertex="1" parent="1">
          <mxGeometry x="370" y="10" width="60" height="40" as="geometry" />
        </mxCell>
        <mxCell id="5ELvxjMlUlLgitfgHMuI-5" value="destino" style="ellipse;whiteSpace=wrap;html=1;" vertex="1" parent="1">
          <mxGeometry x="470" y="60" width="80" height="30" as="geometry" />
        </mxCell>
        <mxCell id="5ELvxjMlUlLgitfgHMuI-6" value="horario" style="ellipse;whiteSpace=wrap;html=1;" vertex="1" parent="1">
          <mxGeometry x="520" y="110" width="70" height="40" as="geometry" />
        </mxCell>
        <mxCell id="5ELvxjMlUlLgitfgHMuI-16" style="edgeStyle=orthogonalEdgeStyle;curved=1;rounded=0;orthogonalLoop=1;jettySize=auto;html=1;exitX=0;exitY=0.5;exitDx=0;exitDy=0;entryX=1;entryY=0.5;entryDx=0;entryDy=0;" edge="1" parent="1" source="5ELvxjMlUlLgitfgHMuI-13" target="5ELvxjMlUlLgitfgHMuI-15">
          <mxGeometry relative="1" as="geometry" />
        </mxCell>
        <mxCell id="5ELvxjMlUlLgitfgHMuI-13" value="PASAJEROS" style="rounded=0;whiteSpace=wrap;html=1;" vertex="1" parent="1">
          <mxGeometry x="480" y="280" width="120" height="60" as="geometry" />
        </mxCell>
        <mxCell id="5ELvxjMlUlLgitfgHMuI-14" value="RESERVAS" style="rounded=0;whiteSpace=wrap;html=1;" vertex="1" parent="1">
          <mxGeometry x="90" y="270" width="120" height="60" as="geometry" />
        </mxCell>
        <mxCell id="5ELvxjMlUlLgitfgHMuI-17" style="edgeStyle=orthogonalEdgeStyle;curved=1;rounded=0;orthogonalLoop=1;jettySize=auto;html=1;exitX=0;exitY=0.5;exitDx=0;exitDy=0;entryX=1;entryY=0.5;entryDx=0;entryDy=0;" edge="1" parent="1" source="5ELvxjMlUlLgitfgHMuI-15" target="5ELvxjMlUlLgitfgHMuI-14">
          <mxGeometry relative="1" as="geometry" />
        </mxCell>
        <mxCell id="5ELvxjMlUlLgitfgHMuI-15" value="realizan" style="rhombus;whiteSpace=wrap;html=1;" vertex="1" parent="1">
          <mxGeometry x="290" y="280" width="100" height="60" as="geometry" />
        </mxCell>
        <mxCell id="5ELvxjMlUlLgitfgHMuI-18" value="(1:N)" style="text;html=1;strokeColor=none;fillColor=none;align=center;verticalAlign=middle;whiteSpace=wrap;rounded=0;" vertex="1" parent="1">
          <mxGeometry x="210" y="270" width="60" height="30" as="geometry" />
        </mxCell>
        <mxCell id="5ELvxjMlUlLgitfgHMuI-19" value="(1:N)" style="text;html=1;strokeColor=none;fillColor=none;align=center;verticalAlign=middle;whiteSpace=wrap;rounded=0;" vertex="1" parent="1">
          <mxGeometry x="430" y="280" width="60" height="30" as="geometry" />
        </mxCell>
        <mxCell id="5ELvxjMlUlLgitfgHMuI-20" value="N:M" style="text;html=1;strokeColor=none;fillColor=none;align=center;verticalAlign=middle;whiteSpace=wrap;rounded=0;" vertex="1" parent="1">
          <mxGeometry x="310" y="250" width="60" height="30" as="geometry" />
        </mxCell>
        <mxCell id="5ELvxjMlUlLgitfgHMuI-23" style="edgeStyle=orthogonalEdgeStyle;curved=1;rounded=0;orthogonalLoop=1;jettySize=auto;html=1;exitX=0;exitY=1;exitDx=0;exitDy=0;entryX=0.5;entryY=0;entryDx=0;entryDy=0;" edge="1" parent="1" source="5ELvxjMlUlLgitfgHMuI-21" target="5ELvxjMlUlLgitfgHMuI-14">
          <mxGeometry relative="1" as="geometry" />
        </mxCell>
        <mxCell id="5ELvxjMlUlLgitfgHMuI-21" value="hay" style="rhombus;whiteSpace=wrap;html=1;" vertex="1" parent="1">
          <mxGeometry x="220" y="190" width="80" height="50" as="geometry" />
        </mxCell>
        <mxCell id="5ELvxjMlUlLgitfgHMuI-24" value="(0:N)" style="text;html=1;strokeColor=none;fillColor=none;align=center;verticalAlign=middle;whiteSpace=wrap;rounded=0;" vertex="1" parent="1">
          <mxGeometry x="90" y="240" width="60" height="30" as="geometry" />
        </mxCell>
        <mxCell id="5ELvxjMlUlLgitfgHMuI-25" value="(1:1)" style="text;html=1;strokeColor=none;fillColor=none;align=center;verticalAlign=middle;whiteSpace=wrap;rounded=0;" vertex="1" parent="1">
          <mxGeometry x="354" y="160" width="60" height="30" as="geometry" />
        </mxCell>
        <mxCell id="5ELvxjMlUlLgitfgHMuI-26" value="&lt;b&gt;1:N&lt;/b&gt;" style="text;html=1;strokeColor=none;fillColor=none;align=center;verticalAlign=middle;whiteSpace=wrap;rounded=0;" vertex="1" parent="1">
          <mxGeometry x="183" y="180" width="60" height="30" as="geometry" />
        </mxCell>
      </root>
    </mxGraphModel>
  </diagram>
  <diagram id="v6PLycQ5SnmA43EqUyH6" name="PÃ¡gina-6">
    <mxGraphModel dx="880" dy="452" grid="1" gridSize="10" guides="1" tooltips="1" connect="1" arrows="1" fold="1" page="1" pageScale="1" pageWidth="827" pageHeight="1169" math="0" shadow="0">
      <root>
        <mxCell id="0" />
        <mxCell id="1" parent="0" />
        <mxCell id="J7tgFxh0mg-gdArDebNM-6" value="" style="edgeStyle=orthogonalEdgeStyle;curved=1;rounded=0;orthogonalLoop=1;jettySize=auto;html=1;" edge="1" parent="1" source="J7tgFxh0mg-gdArDebNM-1" target="J7tgFxh0mg-gdArDebNM-4">
          <mxGeometry relative="1" as="geometry" />
        </mxCell>
        <mxCell id="v3cZJmlABROCgFcnVSnz-4" style="edgeStyle=orthogonalEdgeStyle;curved=1;rounded=0;orthogonalLoop=1;jettySize=auto;html=1;exitX=0;exitY=0.5;exitDx=0;exitDy=0;entryX=1;entryY=0.5;entryDx=0;entryDy=0;" edge="1" parent="1" source="J7tgFxh0mg-gdArDebNM-1" target="v3cZJmlABROCgFcnVSnz-1">
          <mxGeometry relative="1" as="geometry" />
        </mxCell>
        <mxCell id="v3cZJmlABROCgFcnVSnz-5" style="edgeStyle=orthogonalEdgeStyle;curved=1;rounded=0;orthogonalLoop=1;jettySize=auto;html=1;exitX=0;exitY=1;exitDx=0;exitDy=0;entryX=1;entryY=0;entryDx=0;entryDy=0;" edge="1" parent="1" source="J7tgFxh0mg-gdArDebNM-1" target="v3cZJmlABROCgFcnVSnz-2">
          <mxGeometry relative="1" as="geometry" />
        </mxCell>
        <mxCell id="v3cZJmlABROCgFcnVSnz-6" style="edgeStyle=orthogonalEdgeStyle;curved=1;rounded=0;orthogonalLoop=1;jettySize=auto;html=1;exitX=0.25;exitY=1;exitDx=0;exitDy=0;entryX=1;entryY=0;entryDx=0;entryDy=0;" edge="1" parent="1" source="J7tgFxh0mg-gdArDebNM-1" target="v3cZJmlABROCgFcnVSnz-3">
          <mxGeometry relative="1" as="geometry" />
        </mxCell>
        <mxCell id="J7tgFxh0mg-gdArDebNM-1" value="CANCIONES" style="rounded=0;whiteSpace=wrap;html=1;" vertex="1" parent="1">
          <mxGeometry x="280" y="270" width="120" height="60" as="geometry" />
        </mxCell>
        <mxCell id="J7tgFxh0mg-gdArDebNM-2" value="ARTISTAS" style="rounded=0;whiteSpace=wrap;html=1;" vertex="1" parent="1">
          <mxGeometry x="100" y="110" width="120" height="60" as="geometry" />
        </mxCell>
        <mxCell id="J7tgFxh0mg-gdArDebNM-9" style="edgeStyle=orthogonalEdgeStyle;curved=1;rounded=0;orthogonalLoop=1;jettySize=auto;html=1;exitX=0;exitY=0.5;exitDx=0;exitDy=0;entryX=1;entryY=0.5;entryDx=0;entryDy=0;" edge="1" parent="1" source="J7tgFxh0mg-gdArDebNM-3" target="J7tgFxh0mg-gdArDebNM-8">
          <mxGeometry relative="1" as="geometry" />
        </mxCell>
        <mxCell id="J7tgFxh0mg-gdArDebNM-3" value="LISTAS DE REPRODUCCIONES" style="rounded=0;whiteSpace=wrap;html=1;" vertex="1" parent="1">
          <mxGeometry x="650" y="270" width="120" height="60" as="geometry" />
        </mxCell>
        <mxCell id="J7tgFxh0mg-gdArDebNM-7" style="edgeStyle=orthogonalEdgeStyle;curved=1;rounded=0;orthogonalLoop=1;jettySize=auto;html=1;exitX=0;exitY=0.5;exitDx=0;exitDy=0;entryX=1;entryY=0.5;entryDx=0;entryDy=0;" edge="1" parent="1" source="J7tgFxh0mg-gdArDebNM-4" target="J7tgFxh0mg-gdArDebNM-2">
          <mxGeometry relative="1" as="geometry" />
        </mxCell>
        <mxCell id="J7tgFxh0mg-gdArDebNM-4" value="tienen" style="rhombus;whiteSpace=wrap;html=1;" vertex="1" parent="1">
          <mxGeometry x="290" y="110" width="100" height="60" as="geometry" />
        </mxCell>
        <mxCell id="J7tgFxh0mg-gdArDebNM-12" style="edgeStyle=orthogonalEdgeStyle;curved=1;rounded=0;orthogonalLoop=1;jettySize=auto;html=1;exitX=1;exitY=0.5;exitDx=0;exitDy=0;entryX=0;entryY=0.5;entryDx=0;entryDy=0;" edge="1" parent="1" source="J7tgFxh0mg-gdArDebNM-5" target="J7tgFxh0mg-gdArDebNM-11">
          <mxGeometry relative="1" as="geometry" />
        </mxCell>
        <mxCell id="J7tgFxh0mg-gdArDebNM-5" value="USUARIOS" style="rounded=0;whiteSpace=wrap;html=1;" vertex="1" parent="1">
          <mxGeometry x="470" y="110" width="120" height="60" as="geometry" />
        </mxCell>
        <mxCell id="J7tgFxh0mg-gdArDebNM-10" style="edgeStyle=orthogonalEdgeStyle;curved=1;rounded=0;orthogonalLoop=1;jettySize=auto;html=1;exitX=0;exitY=0.5;exitDx=0;exitDy=0;entryX=1;entryY=0.5;entryDx=0;entryDy=0;" edge="1" parent="1" source="J7tgFxh0mg-gdArDebNM-8" target="J7tgFxh0mg-gdArDebNM-1">
          <mxGeometry relative="1" as="geometry" />
        </mxCell>
        <mxCell id="J7tgFxh0mg-gdArDebNM-8" value="tienen" style="rhombus;whiteSpace=wrap;html=1;" vertex="1" parent="1">
          <mxGeometry x="480" y="275" width="100" height="50" as="geometry" />
        </mxCell>
        <mxCell id="J7tgFxh0mg-gdArDebNM-13" style="edgeStyle=orthogonalEdgeStyle;curved=1;rounded=0;orthogonalLoop=1;jettySize=auto;html=1;exitX=0.5;exitY=1;exitDx=0;exitDy=0;" edge="1" parent="1" source="J7tgFxh0mg-gdArDebNM-11" target="J7tgFxh0mg-gdArDebNM-3">
          <mxGeometry relative="1" as="geometry" />
        </mxCell>
        <mxCell id="J7tgFxh0mg-gdArDebNM-11" value="crean" style="rhombus;whiteSpace=wrap;html=1;" vertex="1" parent="1">
          <mxGeometry x="655" y="115" width="110" height="50" as="geometry" />
        </mxCell>
        <mxCell id="J7tgFxh0mg-gdArDebNM-14" value="&lt;b&gt;N:M&lt;/b&gt;" style="text;html=1;strokeColor=none;fillColor=none;align=center;verticalAlign=middle;whiteSpace=wrap;rounded=0;" vertex="1" parent="1">
          <mxGeometry x="310" y="70" width="60" height="30" as="geometry" />
        </mxCell>
        <mxCell id="J7tgFxh0mg-gdArDebNM-15" value="(1:N)" style="text;html=1;strokeColor=none;fillColor=none;align=center;verticalAlign=middle;whiteSpace=wrap;rounded=0;" vertex="1" parent="1">
          <mxGeometry x="220" y="100" width="60" height="30" as="geometry" />
        </mxCell>
        <mxCell id="J7tgFxh0mg-gdArDebNM-16" value="(1:N)" style="text;html=1;strokeColor=none;fillColor=none;align=center;verticalAlign=middle;whiteSpace=wrap;rounded=0;" vertex="1" parent="1">
          <mxGeometry x="340" y="240" width="60" height="30" as="geometry" />
        </mxCell>
        <mxCell id="J7tgFxh0mg-gdArDebNM-17" value="1:N" style="text;html=1;strokeColor=none;fillColor=none;align=center;verticalAlign=middle;whiteSpace=wrap;rounded=0;" vertex="1" parent="1">
          <mxGeometry x="400" y="270" width="60" height="30" as="geometry" />
        </mxCell>
        <mxCell id="J7tgFxh0mg-gdArDebNM-18" value="1:N" style="text;html=1;strokeColor=none;fillColor=none;align=center;verticalAlign=middle;whiteSpace=wrap;rounded=0;" vertex="1" parent="1">
          <mxGeometry x="595" y="270" width="60" height="30" as="geometry" />
        </mxCell>
        <mxCell id="J7tgFxh0mg-gdArDebNM-19" value="&lt;b&gt;N:M&lt;/b&gt;" style="text;html=1;strokeColor=none;fillColor=none;align=center;verticalAlign=middle;whiteSpace=wrap;rounded=0;" vertex="1" parent="1">
          <mxGeometry x="500" y="240" width="60" height="30" as="geometry" />
        </mxCell>
        <mxCell id="J7tgFxh0mg-gdArDebNM-20" value="(0:N)" style="text;html=1;strokeColor=none;fillColor=none;align=center;verticalAlign=middle;whiteSpace=wrap;rounded=0;" vertex="1" parent="1">
          <mxGeometry x="705" y="240" width="60" height="30" as="geometry" />
        </mxCell>
        <mxCell id="J7tgFxh0mg-gdArDebNM-21" value="(1:1)" style="text;html=1;strokeColor=none;fillColor=none;align=center;verticalAlign=middle;whiteSpace=wrap;rounded=0;" vertex="1" parent="1">
          <mxGeometry x="590" y="110" width="60" height="30" as="geometry" />
        </mxCell>
        <mxCell id="J7tgFxh0mg-gdArDebNM-22" value="&lt;b&gt;1:N&lt;/b&gt;" style="text;html=1;strokeColor=none;fillColor=none;align=center;verticalAlign=middle;whiteSpace=wrap;rounded=0;" vertex="1" parent="1">
          <mxGeometry x="680" y="80" width="60" height="30" as="geometry" />
        </mxCell>
        <mxCell id="v3cZJmlABROCgFcnVSnz-1" value="titulo" style="ellipse;whiteSpace=wrap;html=1;" vertex="1" parent="1">
          <mxGeometry x="140" y="300" width="60" height="40" as="geometry" />
        </mxCell>
        <mxCell id="v3cZJmlABROCgFcnVSnz-2" value="genero" style="ellipse;whiteSpace=wrap;html=1;" vertex="1" parent="1">
          <mxGeometry x="170" y="360" width="70" height="40" as="geometry" />
        </mxCell>
        <mxCell id="v3cZJmlABROCgFcnVSnz-3" value="duracion" style="ellipse;whiteSpace=wrap;html=1;" vertex="1" parent="1">
          <mxGeometry x="250" y="390" width="70" height="40" as="geometry" />
        </mxCell>
      </root>
    </mxGraphModel>
  </diagram>
  <diagram id="9m66eqRDgF3w5EWQFyoL" name="PÃ¡gina-7">
    <mxGraphModel dx="880" dy="452" grid="1" gridSize="10" guides="1" tooltips="1" connect="1" arrows="1" fold="1" page="1" pageScale="1" pageWidth="827" pageHeight="1169" math="0" shadow="0">
      <root>
        <mxCell id="0" />
        <mxCell id="1" parent="0" />
        <mxCell id="pQ_wT1M3Wdp7ct1EHVbk-6" style="edgeStyle=orthogonalEdgeStyle;curved=1;rounded=0;orthogonalLoop=1;jettySize=auto;html=1;exitX=0.5;exitY=0;exitDx=0;exitDy=0;entryX=0.5;entryY=1;entryDx=0;entryDy=0;" edge="1" parent="1" source="pQ_wT1M3Wdp7ct1EHVbk-1" target="pQ_wT1M3Wdp7ct1EHVbk-4">
          <mxGeometry relative="1" as="geometry" />
        </mxCell>
        <mxCell id="pQ_wT1M3Wdp7ct1EHVbk-7" style="edgeStyle=orthogonalEdgeStyle;curved=1;rounded=0;orthogonalLoop=1;jettySize=auto;html=1;exitX=0;exitY=0;exitDx=0;exitDy=0;" edge="1" parent="1" source="pQ_wT1M3Wdp7ct1EHVbk-1" target="pQ_wT1M3Wdp7ct1EHVbk-3">
          <mxGeometry relative="1" as="geometry" />
        </mxCell>
        <mxCell id="pQ_wT1M3Wdp7ct1EHVbk-8" style="edgeStyle=orthogonalEdgeStyle;curved=1;rounded=0;orthogonalLoop=1;jettySize=auto;html=1;exitX=0;exitY=0.5;exitDx=0;exitDy=0;" edge="1" parent="1" source="pQ_wT1M3Wdp7ct1EHVbk-1" target="pQ_wT1M3Wdp7ct1EHVbk-2">
          <mxGeometry relative="1" as="geometry" />
        </mxCell>
        <mxCell id="pQ_wT1M3Wdp7ct1EHVbk-13" style="edgeStyle=orthogonalEdgeStyle;curved=1;rounded=0;orthogonalLoop=1;jettySize=auto;html=1;exitX=1;exitY=0.5;exitDx=0;exitDy=0;entryX=0;entryY=0.5;entryDx=0;entryDy=0;" edge="1" parent="1" source="pQ_wT1M3Wdp7ct1EHVbk-1" target="pQ_wT1M3Wdp7ct1EHVbk-12">
          <mxGeometry relative="1" as="geometry" />
        </mxCell>
        <mxCell id="pQ_wT1M3Wdp7ct1EHVbk-1" value="PRODUCTOS" style="rounded=0;whiteSpace=wrap;html=1;" vertex="1" parent="1">
          <mxGeometry x="350" y="120" width="120" height="60" as="geometry" />
        </mxCell>
        <mxCell id="pQ_wT1M3Wdp7ct1EHVbk-2" value="nombre" style="ellipse;whiteSpace=wrap;html=1;" vertex="1" parent="1">
          <mxGeometry x="190" y="125" width="70" height="50" as="geometry" />
        </mxCell>
        <mxCell id="pQ_wT1M3Wdp7ct1EHVbk-3" value="precio" style="ellipse;whiteSpace=wrap;html=1;" vertex="1" parent="1">
          <mxGeometry x="270" y="60" width="60" height="40" as="geometry" />
        </mxCell>
        <mxCell id="pQ_wT1M3Wdp7ct1EHVbk-4" value="cant_stock" style="ellipse;whiteSpace=wrap;html=1;" vertex="1" parent="1">
          <mxGeometry x="360" y="40" width="70" height="50" as="geometry" />
        </mxCell>
        <mxCell id="pQ_wT1M3Wdp7ct1EHVbk-9" value="EMPLEADOS" style="rounded=0;whiteSpace=wrap;html=1;" vertex="1" parent="1">
          <mxGeometry x="200" y="240" width="120" height="60" as="geometry" />
        </mxCell>
        <mxCell id="pQ_wT1M3Wdp7ct1EHVbk-16" style="edgeStyle=orthogonalEdgeStyle;curved=1;rounded=0;orthogonalLoop=1;jettySize=auto;html=1;exitX=0;exitY=0.5;exitDx=0;exitDy=0;entryX=1;entryY=0.5;entryDx=0;entryDy=0;" edge="1" parent="1" source="pQ_wT1M3Wdp7ct1EHVbk-10" target="pQ_wT1M3Wdp7ct1EHVbk-9">
          <mxGeometry relative="1" as="geometry" />
        </mxCell>
        <mxCell id="pQ_wT1M3Wdp7ct1EHVbk-10" value="registran" style="rhombus;whiteSpace=wrap;html=1;" vertex="1" parent="1">
          <mxGeometry x="400" y="245" width="96" height="50" as="geometry" />
        </mxCell>
        <mxCell id="pQ_wT1M3Wdp7ct1EHVbk-15" style="edgeStyle=orthogonalEdgeStyle;curved=1;rounded=0;orthogonalLoop=1;jettySize=auto;html=1;exitX=0;exitY=0.5;exitDx=0;exitDy=0;entryX=1;entryY=0.5;entryDx=0;entryDy=0;" edge="1" parent="1" source="pQ_wT1M3Wdp7ct1EHVbk-11" target="pQ_wT1M3Wdp7ct1EHVbk-10">
          <mxGeometry relative="1" as="geometry" />
        </mxCell>
        <mxCell id="pQ_wT1M3Wdp7ct1EHVbk-11" value="PEDIDOS" style="rounded=0;whiteSpace=wrap;html=1;" vertex="1" parent="1">
          <mxGeometry x="570" y="240" width="120" height="60" as="geometry" />
        </mxCell>
        <mxCell id="pQ_wT1M3Wdp7ct1EHVbk-14" style="edgeStyle=orthogonalEdgeStyle;curved=1;rounded=0;orthogonalLoop=1;jettySize=auto;html=1;exitX=0.5;exitY=1;exitDx=0;exitDy=0;" edge="1" parent="1" source="pQ_wT1M3Wdp7ct1EHVbk-12" target="pQ_wT1M3Wdp7ct1EHVbk-11">
          <mxGeometry relative="1" as="geometry" />
        </mxCell>
        <mxCell id="pQ_wT1M3Wdp7ct1EHVbk-12" value="contienen" style="rhombus;whiteSpace=wrap;html=1;" vertex="1" parent="1">
          <mxGeometry x="580" y="125" width="100" height="50" as="geometry" />
        </mxCell>
        <mxCell id="pQ_wT1M3Wdp7ct1EHVbk-17" value="(1:N)" style="text;html=1;strokeColor=none;fillColor=none;align=center;verticalAlign=middle;whiteSpace=wrap;rounded=0;" vertex="1" parent="1">
          <mxGeometry x="470" y="120" width="60" height="30" as="geometry" />
        </mxCell>
        <mxCell id="pQ_wT1M3Wdp7ct1EHVbk-18" value="(0:N)" style="text;html=1;strokeColor=none;fillColor=none;align=center;verticalAlign=middle;whiteSpace=wrap;rounded=0;" vertex="1" parent="1">
          <mxGeometry x="640" y="210" width="60" height="30" as="geometry" />
        </mxCell>
        <mxCell id="pQ_wT1M3Wdp7ct1EHVbk-19" value="&lt;b&gt;N:M&lt;/b&gt;" style="text;html=1;strokeColor=none;fillColor=none;align=center;verticalAlign=middle;whiteSpace=wrap;rounded=0;" vertex="1" parent="1">
          <mxGeometry x="600" y="95" width="60" height="30" as="geometry" />
        </mxCell>
        <mxCell id="pQ_wT1M3Wdp7ct1EHVbk-20" value="(1:1)" style="text;html=1;strokeColor=none;fillColor=none;align=center;verticalAlign=middle;whiteSpace=wrap;rounded=0;" vertex="1" parent="1">
          <mxGeometry x="320" y="240" width="60" height="30" as="geometry" />
        </mxCell>
        <mxCell id="pQ_wT1M3Wdp7ct1EHVbk-21" value="(0:N)" style="text;html=1;strokeColor=none;fillColor=none;align=center;verticalAlign=middle;whiteSpace=wrap;rounded=0;" vertex="1" parent="1">
          <mxGeometry x="510" y="240" width="60" height="30" as="geometry" />
        </mxCell>
        <mxCell id="pQ_wT1M3Wdp7ct1EHVbk-22" value="&lt;b&gt;1:N&lt;/b&gt;" style="text;html=1;strokeColor=none;fillColor=none;align=center;verticalAlign=middle;whiteSpace=wrap;rounded=0;" vertex="1" parent="1">
          <mxGeometry x="418" y="295" width="60" height="30" as="geometry" />
        </mxCell>
      </root>
    </mxGraphModel>
  </diagram>
  <diagram id="5jDKJSOoeS4H5K6-rNpT" name="PÃ¡gina-8">
    <mxGraphModel dx="880" dy="452" grid="1" gridSize="10" guides="1" tooltips="1" connect="1" arrows="1" fold="1" page="1" pageScale="1" pageWidth="827" pageHeight="1169" math="0" shadow="0">
      <root>
        <mxCell id="0" />
        <mxCell id="1" parent="0" />
        <mxCell id="RcHa6Ws9yiBUdjBkyDlI-7" style="edgeStyle=orthogonalEdgeStyle;curved=1;rounded=0;orthogonalLoop=1;jettySize=auto;html=1;exitX=0;exitY=0.75;exitDx=0;exitDy=0;entryX=1.022;entryY=0.675;entryDx=0;entryDy=0;entryPerimeter=0;" edge="1" parent="1" source="RcHa6Ws9yiBUdjBkyDlI-1" target="RcHa6Ws9yiBUdjBkyDlI-6">
          <mxGeometry relative="1" as="geometry" />
        </mxCell>
        <mxCell id="RcHa6Ws9yiBUdjBkyDlI-8" style="edgeStyle=orthogonalEdgeStyle;curved=1;rounded=0;orthogonalLoop=1;jettySize=auto;html=1;exitX=0;exitY=0.5;exitDx=0;exitDy=0;entryX=0.77;entryY=0.95;entryDx=0;entryDy=0;entryPerimeter=0;" edge="1" parent="1" source="RcHa6Ws9yiBUdjBkyDlI-1" target="RcHa6Ws9yiBUdjBkyDlI-5">
          <mxGeometry relative="1" as="geometry" />
        </mxCell>
        <mxCell id="RcHa6Ws9yiBUdjBkyDlI-9" style="edgeStyle=orthogonalEdgeStyle;curved=1;rounded=0;orthogonalLoop=1;jettySize=auto;html=1;exitX=0;exitY=0;exitDx=0;exitDy=0;entryX=0.5;entryY=1;entryDx=0;entryDy=0;" edge="1" parent="1" source="RcHa6Ws9yiBUdjBkyDlI-1" target="RcHa6Ws9yiBUdjBkyDlI-3">
          <mxGeometry relative="1" as="geometry" />
        </mxCell>
        <mxCell id="RcHa6Ws9yiBUdjBkyDlI-10" style="edgeStyle=orthogonalEdgeStyle;curved=1;rounded=0;orthogonalLoop=1;jettySize=auto;html=1;exitX=0.25;exitY=0;exitDx=0;exitDy=0;entryX=0.243;entryY=1.02;entryDx=0;entryDy=0;entryPerimeter=0;" edge="1" parent="1" source="RcHa6Ws9yiBUdjBkyDlI-1" target="RcHa6Ws9yiBUdjBkyDlI-4">
          <mxGeometry relative="1" as="geometry" />
        </mxCell>
        <mxCell id="RcHa6Ws9yiBUdjBkyDlI-14" style="edgeStyle=orthogonalEdgeStyle;curved=1;rounded=0;orthogonalLoop=1;jettySize=auto;html=1;exitX=1;exitY=0.5;exitDx=0;exitDy=0;entryX=0;entryY=0.5;entryDx=0;entryDy=0;" edge="1" parent="1" source="RcHa6Ws9yiBUdjBkyDlI-1" target="RcHa6Ws9yiBUdjBkyDlI-13">
          <mxGeometry relative="1" as="geometry" />
        </mxCell>
        <mxCell id="RcHa6Ws9yiBUdjBkyDlI-26" style="edgeStyle=orthogonalEdgeStyle;curved=1;rounded=0;orthogonalLoop=1;jettySize=auto;html=1;exitX=0.5;exitY=1;exitDx=0;exitDy=0;entryX=0.5;entryY=0;entryDx=0;entryDy=0;" edge="1" parent="1" source="RcHa6Ws9yiBUdjBkyDlI-1" target="RcHa6Ws9yiBUdjBkyDlI-25">
          <mxGeometry relative="1" as="geometry" />
        </mxCell>
        <mxCell id="RcHa6Ws9yiBUdjBkyDlI-1" value="LIBROS" style="rounded=0;whiteSpace=wrap;html=1;" vertex="1" parent="1">
          <mxGeometry x="130" y="120" width="120" height="60" as="geometry" />
        </mxCell>
        <mxCell id="RcHa6Ws9yiBUdjBkyDlI-2" value="CATEGORIAS" style="rounded=0;whiteSpace=wrap;html=1;" vertex="1" parent="1">
          <mxGeometry x="500" y="120" width="120" height="60" as="geometry" />
        </mxCell>
        <mxCell id="RcHa6Ws9yiBUdjBkyDlI-3" value="autor" style="ellipse;whiteSpace=wrap;html=1;" vertex="1" parent="1">
          <mxGeometry x="90" y="30" width="70" height="50" as="geometry" />
        </mxCell>
        <mxCell id="RcHa6Ws9yiBUdjBkyDlI-4" value="titulo" style="ellipse;whiteSpace=wrap;html=1;" vertex="1" parent="1">
          <mxGeometry x="180" y="30" width="70" height="50" as="geometry" />
        </mxCell>
        <mxCell id="RcHa6Ws9yiBUdjBkyDlI-5" value="aÃ±o_pub" style="ellipse;whiteSpace=wrap;html=1;" vertex="1" parent="1">
          <mxGeometry y="80" width="100" height="40" as="geometry" />
        </mxCell>
        <mxCell id="RcHa6Ws9yiBUdjBkyDlI-6" value="cant_ejemp" style="ellipse;whiteSpace=wrap;html=1;" vertex="1" parent="1">
          <mxGeometry y="140" width="90" height="40" as="geometry" />
        </mxCell>
        <mxCell id="RcHa6Ws9yiBUdjBkyDlI-33" style="edgeStyle=orthogonalEdgeStyle;curved=1;rounded=0;orthogonalLoop=1;jettySize=auto;html=1;exitX=0;exitY=0.5;exitDx=0;exitDy=0;entryX=1;entryY=1;entryDx=0;entryDy=0;" edge="1" parent="1" source="RcHa6Ws9yiBUdjBkyDlI-11" target="RcHa6Ws9yiBUdjBkyDlI-31">
          <mxGeometry relative="1" as="geometry" />
        </mxCell>
        <mxCell id="RcHa6Ws9yiBUdjBkyDlI-34" style="edgeStyle=orthogonalEdgeStyle;curved=1;rounded=0;orthogonalLoop=1;jettySize=auto;html=1;exitX=0;exitY=1;exitDx=0;exitDy=0;entryX=1;entryY=0;entryDx=0;entryDy=0;" edge="1" parent="1" source="RcHa6Ws9yiBUdjBkyDlI-11" target="RcHa6Ws9yiBUdjBkyDlI-32">
          <mxGeometry relative="1" as="geometry" />
        </mxCell>
        <mxCell id="RcHa6Ws9yiBUdjBkyDlI-11" value="PRESTAMOS" style="rounded=0;whiteSpace=wrap;html=1;" vertex="1" parent="1">
          <mxGeometry x="130" y="340" width="120" height="60" as="geometry" />
        </mxCell>
        <mxCell id="RcHa6Ws9yiBUdjBkyDlI-20" style="edgeStyle=orthogonalEdgeStyle;curved=1;rounded=0;orthogonalLoop=1;jettySize=auto;html=1;exitX=0;exitY=0.5;exitDx=0;exitDy=0;entryX=1;entryY=0.5;entryDx=0;entryDy=0;" edge="1" parent="1" source="RcHa6Ws9yiBUdjBkyDlI-12" target="RcHa6Ws9yiBUdjBkyDlI-19">
          <mxGeometry relative="1" as="geometry" />
        </mxCell>
        <mxCell id="RcHa6Ws9yiBUdjBkyDlI-12" value="USUARIOS" style="rounded=0;whiteSpace=wrap;html=1;" vertex="1" parent="1">
          <mxGeometry x="490" y="340" width="120" height="60" as="geometry" />
        </mxCell>
        <mxCell id="RcHa6Ws9yiBUdjBkyDlI-15" style="edgeStyle=orthogonalEdgeStyle;curved=1;rounded=0;orthogonalLoop=1;jettySize=auto;html=1;exitX=1;exitY=0.5;exitDx=0;exitDy=0;entryX=0;entryY=0.5;entryDx=0;entryDy=0;" edge="1" parent="1" source="RcHa6Ws9yiBUdjBkyDlI-13" target="RcHa6Ws9yiBUdjBkyDlI-2">
          <mxGeometry relative="1" as="geometry" />
        </mxCell>
        <mxCell id="RcHa6Ws9yiBUdjBkyDlI-13" value="pertenecen" style="rhombus;whiteSpace=wrap;html=1;" vertex="1" parent="1">
          <mxGeometry x="310" y="125" width="110" height="50" as="geometry" />
        </mxCell>
        <mxCell id="RcHa6Ws9yiBUdjBkyDlI-16" value="(1:N)" style="text;html=1;strokeColor=none;fillColor=none;align=center;verticalAlign=middle;whiteSpace=wrap;rounded=0;" vertex="1" parent="1">
          <mxGeometry x="240" y="120" width="60" height="30" as="geometry" />
        </mxCell>
        <mxCell id="RcHa6Ws9yiBUdjBkyDlI-17" value="(1:N)" style="text;html=1;strokeColor=none;fillColor=none;align=center;verticalAlign=middle;whiteSpace=wrap;rounded=0;" vertex="1" parent="1">
          <mxGeometry x="440" y="120" width="60" height="30" as="geometry" />
        </mxCell>
        <mxCell id="RcHa6Ws9yiBUdjBkyDlI-18" value="&lt;b&gt;N:M&lt;/b&gt;" style="text;html=1;strokeColor=none;fillColor=none;align=center;verticalAlign=middle;whiteSpace=wrap;rounded=0;" vertex="1" parent="1">
          <mxGeometry x="335" y="95" width="60" height="30" as="geometry" />
        </mxCell>
        <mxCell id="RcHa6Ws9yiBUdjBkyDlI-21" style="edgeStyle=orthogonalEdgeStyle;curved=1;rounded=0;orthogonalLoop=1;jettySize=auto;html=1;exitX=0;exitY=0.5;exitDx=0;exitDy=0;entryX=1;entryY=0.5;entryDx=0;entryDy=0;" edge="1" parent="1" source="RcHa6Ws9yiBUdjBkyDlI-19" target="RcHa6Ws9yiBUdjBkyDlI-11">
          <mxGeometry relative="1" as="geometry" />
        </mxCell>
        <mxCell id="RcHa6Ws9yiBUdjBkyDlI-19" value="hacen" style="rhombus;whiteSpace=wrap;html=1;" vertex="1" parent="1">
          <mxGeometry x="310" y="345" width="100" height="50" as="geometry" />
        </mxCell>
        <mxCell id="RcHa6Ws9yiBUdjBkyDlI-22" value="(1:N)" style="text;html=1;strokeColor=none;fillColor=none;align=center;verticalAlign=middle;whiteSpace=wrap;rounded=0;" vertex="1" parent="1">
          <mxGeometry x="250" y="340" width="60" height="30" as="geometry" />
        </mxCell>
        <mxCell id="RcHa6Ws9yiBUdjBkyDlI-23" value="(1:1)" style="text;html=1;strokeColor=none;fillColor=none;align=center;verticalAlign=middle;whiteSpace=wrap;rounded=0;" vertex="1" parent="1">
          <mxGeometry x="440" y="340" width="60" height="30" as="geometry" />
        </mxCell>
        <mxCell id="RcHa6Ws9yiBUdjBkyDlI-24" value="&lt;b&gt;N:1&lt;/b&gt;" style="text;html=1;strokeColor=none;fillColor=none;align=center;verticalAlign=middle;whiteSpace=wrap;rounded=0;" vertex="1" parent="1">
          <mxGeometry x="330" y="315" width="60" height="30" as="geometry" />
        </mxCell>
        <mxCell id="RcHa6Ws9yiBUdjBkyDlI-27" style="edgeStyle=orthogonalEdgeStyle;curved=1;rounded=0;orthogonalLoop=1;jettySize=auto;html=1;exitX=0.5;exitY=1;exitDx=0;exitDy=0;entryX=0.5;entryY=0;entryDx=0;entryDy=0;" edge="1" parent="1" source="RcHa6Ws9yiBUdjBkyDlI-25" target="RcHa6Ws9yiBUdjBkyDlI-11">
          <mxGeometry relative="1" as="geometry" />
        </mxCell>
        <mxCell id="RcHa6Ws9yiBUdjBkyDlI-25" value="son" style="rhombus;whiteSpace=wrap;html=1;" vertex="1" parent="1">
          <mxGeometry x="162.5" y="250" width="55" height="40" as="geometry" />
        </mxCell>
        <mxCell id="RcHa6Ws9yiBUdjBkyDlI-28" value="(0:N)" style="text;html=1;strokeColor=none;fillColor=none;align=center;verticalAlign=middle;whiteSpace=wrap;rounded=0;" vertex="1" parent="1">
          <mxGeometry x="140" y="300" width="60" height="30" as="geometry" />
        </mxCell>
        <mxCell id="RcHa6Ws9yiBUdjBkyDlI-29" value="(1:N)" style="text;html=1;strokeColor=none;fillColor=none;align=center;verticalAlign=middle;whiteSpace=wrap;rounded=0;" vertex="1" parent="1">
          <mxGeometry x="130" y="180" width="60" height="30" as="geometry" />
        </mxCell>
        <mxCell id="RcHa6Ws9yiBUdjBkyDlI-30" value="&lt;b&gt;N:M&lt;/b&gt;" style="text;html=1;strokeColor=none;fillColor=none;align=center;verticalAlign=middle;whiteSpace=wrap;rounded=0;" vertex="1" parent="1">
          <mxGeometry x="103" y="255" width="60" height="30" as="geometry" />
        </mxCell>
        <mxCell id="RcHa6Ws9yiBUdjBkyDlI-31" value="fecha_inicio" style="ellipse;whiteSpace=wrap;html=1;" vertex="1" parent="1">
          <mxGeometry x="10" y="340" width="90" height="40" as="geometry" />
        </mxCell>
        <mxCell id="RcHa6Ws9yiBUdjBkyDlI-32" value="fecha_devolucion" style="ellipse;whiteSpace=wrap;html=1;" vertex="1" parent="1">
          <mxGeometry x="10" y="410" width="100" height="35" as="geometry" />
        </mxCell>
      </root>
    </mxGraphModel>
  </diagram>
  <diagram id="xcYm729KlZVEyiU_SeBL" name="PÃ¡gina-9">
    <mxGraphModel dx="880" dy="452" grid="1" gridSize="10" guides="1" tooltips="1" connect="1" arrows="1" fold="1" page="1" pageScale="1" pageWidth="827" pageHeight="1169" math="0" shadow="0">
      <root>
        <mxCell id="0" />
        <mxCell id="1" parent="0" />
        <mxCell id="hSsuWOLEZBeUdJOZrRSf-9" style="edgeStyle=orthogonalEdgeStyle;curved=1;rounded=0;orthogonalLoop=1;jettySize=auto;html=1;exitX=0;exitY=1;exitDx=0;exitDy=0;entryX=1;entryY=0.5;entryDx=0;entryDy=0;" edge="1" parent="1" source="hSsuWOLEZBeUdJOZrRSf-1" target="hSsuWOLEZBeUdJOZrRSf-5">
          <mxGeometry relative="1" as="geometry" />
        </mxCell>
        <mxCell id="hSsuWOLEZBeUdJOZrRSf-10" style="edgeStyle=orthogonalEdgeStyle;curved=1;rounded=0;orthogonalLoop=1;jettySize=auto;html=1;exitX=0;exitY=0.5;exitDx=0;exitDy=0;entryX=1;entryY=0.5;entryDx=0;entryDy=0;" edge="1" parent="1" source="hSsuWOLEZBeUdJOZrRSf-1" target="hSsuWOLEZBeUdJOZrRSf-6">
          <mxGeometry relative="1" as="geometry" />
        </mxCell>
        <mxCell id="hSsuWOLEZBeUdJOZrRSf-11" style="edgeStyle=orthogonalEdgeStyle;curved=1;rounded=0;orthogonalLoop=1;jettySize=auto;html=1;exitX=0;exitY=0;exitDx=0;exitDy=0;entryX=0.7;entryY=0.975;entryDx=0;entryDy=0;entryPerimeter=0;" edge="1" parent="1" source="hSsuWOLEZBeUdJOZrRSf-1" target="hSsuWOLEZBeUdJOZrRSf-7">
          <mxGeometry relative="1" as="geometry" />
        </mxCell>
        <mxCell id="hSsuWOLEZBeUdJOZrRSf-12" style="edgeStyle=orthogonalEdgeStyle;curved=1;rounded=0;orthogonalLoop=1;jettySize=auto;html=1;exitX=0.5;exitY=0;exitDx=0;exitDy=0;entryX=0.5;entryY=1;entryDx=0;entryDy=0;" edge="1" parent="1" source="hSsuWOLEZBeUdJOZrRSf-1" target="hSsuWOLEZBeUdJOZrRSf-8">
          <mxGeometry relative="1" as="geometry" />
        </mxCell>
        <mxCell id="hSsuWOLEZBeUdJOZrRSf-14" style="edgeStyle=orthogonalEdgeStyle;curved=1;rounded=0;orthogonalLoop=1;jettySize=auto;html=1;exitX=1;exitY=0.5;exitDx=0;exitDy=0;entryX=0;entryY=0.5;entryDx=0;entryDy=0;" edge="1" parent="1" source="hSsuWOLEZBeUdJOZrRSf-1" target="hSsuWOLEZBeUdJOZrRSf-13">
          <mxGeometry relative="1" as="geometry" />
        </mxCell>
        <mxCell id="hSsuWOLEZBeUdJOZrRSf-1" value="PRENDAS DE VESTIR" style="rounded=0;whiteSpace=wrap;html=1;" vertex="1" parent="1">
          <mxGeometry x="150" y="100" width="100" height="50" as="geometry" />
        </mxCell>
        <mxCell id="hSsuWOLEZBeUdJOZrRSf-2" value="MARCAS" style="rounded=0;whiteSpace=wrap;html=1;" vertex="1" parent="1">
          <mxGeometry x="500" y="110" width="90" height="30" as="geometry" />
        </mxCell>
        <mxCell id="hSsuWOLEZBeUdJOZrRSf-26" style="edgeStyle=orthogonalEdgeStyle;curved=1;rounded=0;orthogonalLoop=1;jettySize=auto;html=1;exitX=0.5;exitY=0;exitDx=0;exitDy=0;entryX=1;entryY=0.5;entryDx=0;entryDy=0;" edge="1" parent="1" source="hSsuWOLEZBeUdJOZrRSf-3" target="hSsuWOLEZBeUdJOZrRSf-25">
          <mxGeometry relative="1" as="geometry" />
        </mxCell>
        <mxCell id="hSsuWOLEZBeUdJOZrRSf-3" value="COMPRAS" style="rounded=0;whiteSpace=wrap;html=1;" vertex="1" parent="1">
          <mxGeometry x="510" y="290" width="70" height="40" as="geometry" />
        </mxCell>
        <mxCell id="hSsuWOLEZBeUdJOZrRSf-20" style="edgeStyle=orthogonalEdgeStyle;curved=1;rounded=0;orthogonalLoop=1;jettySize=auto;html=1;exitX=1;exitY=0.5;exitDx=0;exitDy=0;entryX=0;entryY=0.5;entryDx=0;entryDy=0;" edge="1" parent="1" source="hSsuWOLEZBeUdJOZrRSf-4" target="hSsuWOLEZBeUdJOZrRSf-19">
          <mxGeometry relative="1" as="geometry" />
        </mxCell>
        <mxCell id="hSsuWOLEZBeUdJOZrRSf-4" value="CLIENTES" style="rounded=0;whiteSpace=wrap;html=1;" vertex="1" parent="1">
          <mxGeometry x="165" y="290" width="70" height="40" as="geometry" />
        </mxCell>
        <mxCell id="hSsuWOLEZBeUdJOZrRSf-5" value="nombre" style="ellipse;whiteSpace=wrap;html=1;" vertex="1" parent="1">
          <mxGeometry x="30" y="150" width="70" height="40" as="geometry" />
        </mxCell>
        <mxCell id="hSsuWOLEZBeUdJOZrRSf-6" value="talla" style="ellipse;whiteSpace=wrap;html=1;" vertex="1" parent="1">
          <mxGeometry x="50" y="100" width="60" height="30" as="geometry" />
        </mxCell>
        <mxCell id="hSsuWOLEZBeUdJOZrRSf-7" value="color" style="ellipse;whiteSpace=wrap;html=1;" vertex="1" parent="1">
          <mxGeometry x="100" y="40" width="60" height="40" as="geometry" />
        </mxCell>
        <mxCell id="hSsuWOLEZBeUdJOZrRSf-8" value="precio" style="ellipse;whiteSpace=wrap;html=1;" vertex="1" parent="1">
          <mxGeometry x="190" y="30" width="50" height="30" as="geometry" />
        </mxCell>
        <mxCell id="hSsuWOLEZBeUdJOZrRSf-15" style="edgeStyle=orthogonalEdgeStyle;curved=1;rounded=0;orthogonalLoop=1;jettySize=auto;html=1;exitX=1;exitY=0.5;exitDx=0;exitDy=0;entryX=0;entryY=0.5;entryDx=0;entryDy=0;" edge="1" parent="1" source="hSsuWOLEZBeUdJOZrRSf-13" target="hSsuWOLEZBeUdJOZrRSf-2">
          <mxGeometry relative="1" as="geometry" />
        </mxCell>
        <mxCell id="hSsuWOLEZBeUdJOZrRSf-13" value="pertenecen" style="rhombus;whiteSpace=wrap;html=1;" vertex="1" parent="1">
          <mxGeometry x="333.5" y="102.5" width="80" height="45" as="geometry" />
        </mxCell>
        <mxCell id="hSsuWOLEZBeUdJOZrRSf-16" value="(1:N)" style="text;html=1;strokeColor=none;fillColor=none;align=center;verticalAlign=middle;whiteSpace=wrap;rounded=0;" vertex="1" parent="1">
          <mxGeometry x="250" y="90" width="60" height="30" as="geometry" />
        </mxCell>
        <mxCell id="hSsuWOLEZBeUdJOZrRSf-17" value="(1:1)" style="text;html=1;strokeColor=none;fillColor=none;align=center;verticalAlign=middle;whiteSpace=wrap;rounded=0;" vertex="1" parent="1">
          <mxGeometry x="440" y="90" width="60" height="30" as="geometry" />
        </mxCell>
        <mxCell id="hSsuWOLEZBeUdJOZrRSf-18" value="&lt;b&gt;N:1&lt;/b&gt;" style="text;html=1;strokeColor=none;fillColor=none;align=center;verticalAlign=middle;whiteSpace=wrap;rounded=0;" vertex="1" parent="1">
          <mxGeometry x="344" y="70" width="60" height="30" as="geometry" />
        </mxCell>
        <mxCell id="hSsuWOLEZBeUdJOZrRSf-21" style="edgeStyle=orthogonalEdgeStyle;curved=1;rounded=0;orthogonalLoop=1;jettySize=auto;html=1;exitX=1;exitY=0.5;exitDx=0;exitDy=0;entryX=0;entryY=0.5;entryDx=0;entryDy=0;" edge="1" parent="1" source="hSsuWOLEZBeUdJOZrRSf-19" target="hSsuWOLEZBeUdJOZrRSf-3">
          <mxGeometry relative="1" as="geometry" />
        </mxCell>
        <mxCell id="hSsuWOLEZBeUdJOZrRSf-19" value="realizar" style="rhombus;whiteSpace=wrap;html=1;" vertex="1" parent="1">
          <mxGeometry x="318" y="285" width="86" height="50" as="geometry" />
        </mxCell>
        <mxCell id="hSsuWOLEZBeUdJOZrRSf-22" value="(1:N)" style="text;html=1;strokeColor=none;fillColor=none;align=center;verticalAlign=middle;whiteSpace=wrap;rounded=0;" vertex="1" parent="1">
          <mxGeometry x="450" y="280" width="60" height="30" as="geometry" />
        </mxCell>
        <mxCell id="hSsuWOLEZBeUdJOZrRSf-23" value="(1:1)" style="text;html=1;strokeColor=none;fillColor=none;align=center;verticalAlign=middle;whiteSpace=wrap;rounded=0;" vertex="1" parent="1">
          <mxGeometry x="230" y="280" width="60" height="30" as="geometry" />
        </mxCell>
        <mxCell id="hSsuWOLEZBeUdJOZrRSf-24" value="&lt;b&gt;1:N&lt;/b&gt;" style="text;html=1;strokeColor=none;fillColor=none;align=center;verticalAlign=middle;whiteSpace=wrap;rounded=0;" vertex="1" parent="1">
          <mxGeometry x="331" y="340" width="60" height="30" as="geometry" />
        </mxCell>
        <mxCell id="hSsuWOLEZBeUdJOZrRSf-27" style="edgeStyle=orthogonalEdgeStyle;curved=1;rounded=0;orthogonalLoop=1;jettySize=auto;html=1;exitX=0;exitY=0.5;exitDx=0;exitDy=0;entryX=0.5;entryY=1;entryDx=0;entryDy=0;" edge="1" parent="1" source="hSsuWOLEZBeUdJOZrRSf-25" target="hSsuWOLEZBeUdJOZrRSf-1">
          <mxGeometry relative="1" as="geometry" />
        </mxCell>
        <mxCell id="hSsuWOLEZBeUdJOZrRSf-25" value="incluye" style="rhombus;whiteSpace=wrap;html=1;" vertex="1" parent="1">
          <mxGeometry x="298" y="200" width="106" height="50" as="geometry" />
        </mxCell>
        <mxCell id="hSsuWOLEZBeUdJOZrRSf-28" value="(1:N)" style="text;html=1;strokeColor=none;fillColor=none;align=center;verticalAlign=middle;whiteSpace=wrap;rounded=0;" vertex="1" parent="1">
          <mxGeometry x="200" y="155" width="60" height="30" as="geometry" />
        </mxCell>
        <mxCell id="hSsuWOLEZBeUdJOZrRSf-29" value="0:N" style="text;html=1;strokeColor=none;fillColor=none;align=center;verticalAlign=middle;whiteSpace=wrap;rounded=0;" vertex="1" parent="1">
          <mxGeometry x="540" y="260" width="60" height="30" as="geometry" />
        </mxCell>
        <mxCell id="hSsuWOLEZBeUdJOZrRSf-30" value="&lt;b&gt;N:M&lt;/b&gt;" style="text;html=1;strokeColor=none;fillColor=none;align=center;verticalAlign=middle;whiteSpace=wrap;rounded=0;" vertex="1" parent="1">
          <mxGeometry x="321" y="180" width="60" height="30" as="geometry" />
        </mxCell>
      </root>
    </mxGraphModel>
  </diagram>
  <diagram id="oWt7wYZ5BaQFQn8fvLF9" name="PÃ¡gina-10">
    <mxGraphModel dx="880" dy="452" grid="1" gridSize="10" guides="1" tooltips="1" connect="1" arrows="1" fold="1" page="1" pageScale="1" pageWidth="827" pageHeight="1169" math="0" shadow="0">
      <root>
        <mxCell id="0" />
        <mxCell id="1" parent="0" />
        <mxCell id="soCObBApkF6ZxV0KR_g--4" style="edgeStyle=orthogonalEdgeStyle;curved=1;rounded=0;orthogonalLoop=1;jettySize=auto;html=1;exitX=1;exitY=0.5;exitDx=0;exitDy=0;entryX=0;entryY=0.5;entryDx=0;entryDy=0;endArrow=none;endFill=0;" edge="1" parent="1" source="soCObBApkF6ZxV0KR_g--1" target="soCObBApkF6ZxV0KR_g--3">
          <mxGeometry relative="1" as="geometry" />
        </mxCell>
        <mxCell id="soCObBApkF6ZxV0KR_g--40" style="edgeStyle=orthogonalEdgeStyle;curved=1;rounded=0;orthogonalLoop=1;jettySize=auto;html=1;exitX=0.75;exitY=0;exitDx=0;exitDy=0;entryX=0.386;entryY=1.067;entryDx=0;entryDy=0;entryPerimeter=0;endArrow=none;endFill=0;" edge="1" parent="1" source="soCObBApkF6ZxV0KR_g--1" target="soCObBApkF6ZxV0KR_g--32">
          <mxGeometry relative="1" as="geometry" />
        </mxCell>
        <mxCell id="soCObBApkF6ZxV0KR_g--41" style="edgeStyle=orthogonalEdgeStyle;curved=1;rounded=0;orthogonalLoop=1;jettySize=auto;html=1;exitX=0.5;exitY=0;exitDx=0;exitDy=0;entryX=1;entryY=1;entryDx=0;entryDy=0;endArrow=none;endFill=0;" edge="1" parent="1" source="soCObBApkF6ZxV0KR_g--1" target="soCObBApkF6ZxV0KR_g--33">
          <mxGeometry relative="1" as="geometry" />
        </mxCell>
        <mxCell id="soCObBApkF6ZxV0KR_g--43" style="edgeStyle=orthogonalEdgeStyle;curved=1;rounded=0;orthogonalLoop=1;jettySize=auto;html=1;exitX=0;exitY=0;exitDx=0;exitDy=0;entryX=1;entryY=0.5;entryDx=0;entryDy=0;endArrow=none;endFill=0;" edge="1" parent="1" source="soCObBApkF6ZxV0KR_g--1" target="soCObBApkF6ZxV0KR_g--35">
          <mxGeometry relative="1" as="geometry" />
        </mxCell>
        <mxCell id="soCObBApkF6ZxV0KR_g--44" style="edgeStyle=orthogonalEdgeStyle;curved=1;rounded=0;orthogonalLoop=1;jettySize=auto;html=1;exitX=0;exitY=0.5;exitDx=0;exitDy=0;entryX=1;entryY=0.5;entryDx=0;entryDy=0;endArrow=none;endFill=0;" edge="1" parent="1" source="soCObBApkF6ZxV0KR_g--1" target="soCObBApkF6ZxV0KR_g--36">
          <mxGeometry relative="1" as="geometry" />
        </mxCell>
        <mxCell id="soCObBApkF6ZxV0KR_g--45" style="edgeStyle=orthogonalEdgeStyle;curved=1;rounded=0;orthogonalLoop=1;jettySize=auto;html=1;exitX=0;exitY=1;exitDx=0;exitDy=0;entryX=1;entryY=0;entryDx=0;entryDy=0;endArrow=none;endFill=0;" edge="1" parent="1" source="soCObBApkF6ZxV0KR_g--1" target="soCObBApkF6ZxV0KR_g--38">
          <mxGeometry relative="1" as="geometry" />
        </mxCell>
        <mxCell id="soCObBApkF6ZxV0KR_g--46" style="edgeStyle=orthogonalEdgeStyle;curved=1;rounded=0;orthogonalLoop=1;jettySize=auto;html=1;exitX=0.25;exitY=1;exitDx=0;exitDy=0;entryX=0.5;entryY=0;entryDx=0;entryDy=0;endArrow=none;endFill=0;" edge="1" parent="1" source="soCObBApkF6ZxV0KR_g--1" target="soCObBApkF6ZxV0KR_g--37">
          <mxGeometry relative="1" as="geometry" />
        </mxCell>
        <mxCell id="soCObBApkF6ZxV0KR_g--47" style="edgeStyle=orthogonalEdgeStyle;curved=1;rounded=0;orthogonalLoop=1;jettySize=auto;html=1;exitX=0.75;exitY=1;exitDx=0;exitDy=0;entryX=0.5;entryY=0;entryDx=0;entryDy=0;endArrow=none;endFill=0;" edge="1" parent="1" source="soCObBApkF6ZxV0KR_g--1" target="soCObBApkF6ZxV0KR_g--39">
          <mxGeometry relative="1" as="geometry" />
        </mxCell>
        <mxCell id="soCObBApkF6ZxV0KR_g--48" style="edgeStyle=orthogonalEdgeStyle;curved=1;rounded=0;orthogonalLoop=1;jettySize=auto;html=1;exitX=0;exitY=0;exitDx=0;exitDy=0;entryX=1;entryY=0.5;entryDx=0;entryDy=0;endArrow=none;endFill=0;" edge="1" parent="1" source="soCObBApkF6ZxV0KR_g--1" target="soCObBApkF6ZxV0KR_g--34">
          <mxGeometry relative="1" as="geometry" />
        </mxCell>
        <mxCell id="soCObBApkF6ZxV0KR_g--1" value="COLABORADORES" style="rounded=0;whiteSpace=wrap;html=1;" vertex="1" parent="1">
          <mxGeometry x="120" y="80" width="120" height="40" as="geometry" />
        </mxCell>
        <mxCell id="soCObBApkF6ZxV0KR_g--11" style="edgeStyle=orthogonalEdgeStyle;curved=1;rounded=0;orthogonalLoop=1;jettySize=auto;html=1;exitX=0.5;exitY=1;exitDx=0;exitDy=0;entryX=0.5;entryY=0;entryDx=0;entryDy=0;endArrow=none;endFill=0;" edge="1" parent="1" source="soCObBApkF6ZxV0KR_g--2" target="soCObBApkF6ZxV0KR_g--10">
          <mxGeometry relative="1" as="geometry" />
        </mxCell>
        <mxCell id="soCObBApkF6ZxV0KR_g--55" style="edgeStyle=orthogonalEdgeStyle;curved=1;rounded=0;orthogonalLoop=1;jettySize=auto;html=1;exitX=0.25;exitY=0;exitDx=0;exitDy=0;entryX=0.5;entryY=1;entryDx=0;entryDy=0;endArrow=none;endFill=0;" edge="1" parent="1" source="soCObBApkF6ZxV0KR_g--2" target="soCObBApkF6ZxV0KR_g--49">
          <mxGeometry relative="1" as="geometry" />
        </mxCell>
        <mxCell id="soCObBApkF6ZxV0KR_g--56" style="edgeStyle=orthogonalEdgeStyle;curved=1;rounded=0;orthogonalLoop=1;jettySize=auto;html=1;exitX=0.5;exitY=0;exitDx=0;exitDy=0;entryX=0.5;entryY=1;entryDx=0;entryDy=0;endArrow=none;endFill=0;" edge="1" parent="1" source="soCObBApkF6ZxV0KR_g--2" target="soCObBApkF6ZxV0KR_g--50">
          <mxGeometry relative="1" as="geometry" />
        </mxCell>
        <mxCell id="soCObBApkF6ZxV0KR_g--57" style="edgeStyle=orthogonalEdgeStyle;curved=1;rounded=0;orthogonalLoop=1;jettySize=auto;html=1;exitX=1;exitY=0;exitDx=0;exitDy=0;entryX=0;entryY=1;entryDx=0;entryDy=0;endArrow=none;endFill=0;" edge="1" parent="1" source="soCObBApkF6ZxV0KR_g--2" target="soCObBApkF6ZxV0KR_g--51">
          <mxGeometry relative="1" as="geometry" />
        </mxCell>
        <mxCell id="soCObBApkF6ZxV0KR_g--58" style="edgeStyle=orthogonalEdgeStyle;curved=1;rounded=0;orthogonalLoop=1;jettySize=auto;html=1;exitX=1;exitY=0.5;exitDx=0;exitDy=0;entryX=0;entryY=0.5;entryDx=0;entryDy=0;endArrow=none;endFill=0;" edge="1" parent="1" source="soCObBApkF6ZxV0KR_g--2" target="soCObBApkF6ZxV0KR_g--52">
          <mxGeometry relative="1" as="geometry" />
        </mxCell>
        <mxCell id="soCObBApkF6ZxV0KR_g--59" style="edgeStyle=orthogonalEdgeStyle;curved=1;rounded=0;orthogonalLoop=1;jettySize=auto;html=1;exitX=1;exitY=1;exitDx=0;exitDy=0;entryX=0;entryY=0.5;entryDx=0;entryDy=0;endArrow=none;endFill=0;" edge="1" parent="1" source="soCObBApkF6ZxV0KR_g--2" target="soCObBApkF6ZxV0KR_g--53">
          <mxGeometry relative="1" as="geometry">
            <Array as="points">
              <mxPoint x="700" y="115" />
              <mxPoint x="700" y="115" />
            </Array>
          </mxGeometry>
        </mxCell>
        <mxCell id="soCObBApkF6ZxV0KR_g--61" style="edgeStyle=orthogonalEdgeStyle;curved=1;rounded=0;orthogonalLoop=1;jettySize=auto;html=1;exitX=1;exitY=1;exitDx=0;exitDy=0;entryX=0;entryY=0.5;entryDx=0;entryDy=0;endArrow=none;endFill=0;" edge="1" parent="1" source="soCObBApkF6ZxV0KR_g--2" target="soCObBApkF6ZxV0KR_g--54">
          <mxGeometry relative="1" as="geometry" />
        </mxCell>
        <mxCell id="soCObBApkF6ZxV0KR_g--107" style="edgeStyle=orthogonalEdgeStyle;curved=1;rounded=0;orthogonalLoop=1;jettySize=auto;html=1;exitX=0;exitY=0;exitDx=0;exitDy=0;entryX=1;entryY=0.5;entryDx=0;entryDy=0;endArrow=none;endFill=0;" edge="1" parent="1" source="soCObBApkF6ZxV0KR_g--2" target="soCObBApkF6ZxV0KR_g--106">
          <mxGeometry relative="1" as="geometry" />
        </mxCell>
        <mxCell id="soCObBApkF6ZxV0KR_g--2" value="ARTICULOS" style="rounded=0;whiteSpace=wrap;html=1;" vertex="1" parent="1">
          <mxGeometry x="580" y="85" width="100" height="30" as="geometry" />
        </mxCell>
        <mxCell id="soCObBApkF6ZxV0KR_g--5" style="edgeStyle=orthogonalEdgeStyle;curved=1;rounded=0;orthogonalLoop=1;jettySize=auto;html=1;exitX=1;exitY=0.5;exitDx=0;exitDy=0;entryX=0;entryY=0.5;entryDx=0;entryDy=0;endArrow=none;endFill=0;" edge="1" parent="1" source="soCObBApkF6ZxV0KR_g--3" target="soCObBApkF6ZxV0KR_g--2">
          <mxGeometry relative="1" as="geometry" />
        </mxCell>
        <mxCell id="soCObBApkF6ZxV0KR_g--3" value="escriben" style="rhombus;whiteSpace=wrap;html=1;" vertex="1" parent="1">
          <mxGeometry x="380" y="115" width="90" height="40" as="geometry" />
        </mxCell>
        <mxCell id="soCObBApkF6ZxV0KR_g--6" value="(1:1)" style="text;html=1;strokeColor=none;fillColor=none;align=center;verticalAlign=middle;whiteSpace=wrap;rounded=0;" vertex="1" parent="1">
          <mxGeometry x="270" y="80" width="60" height="30" as="geometry" />
        </mxCell>
        <mxCell id="soCObBApkF6ZxV0KR_g--7" value="(1:N)" style="text;html=1;strokeColor=none;fillColor=none;align=center;verticalAlign=middle;whiteSpace=wrap;rounded=0;" vertex="1" parent="1">
          <mxGeometry x="510" y="70" width="60" height="30" as="geometry" />
        </mxCell>
        <mxCell id="soCObBApkF6ZxV0KR_g--8" value="&lt;b&gt;1:N&lt;/b&gt;" style="text;html=1;strokeColor=none;fillColor=none;align=center;verticalAlign=middle;whiteSpace=wrap;rounded=0;" vertex="1" parent="1">
          <mxGeometry x="390" y="85" width="60" height="30" as="geometry" />
        </mxCell>
        <mxCell id="soCObBApkF6ZxV0KR_g--18" style="edgeStyle=orthogonalEdgeStyle;curved=1;rounded=0;orthogonalLoop=1;jettySize=auto;html=1;exitX=0.5;exitY=1;exitDx=0;exitDy=0;entryX=0.5;entryY=0;entryDx=0;entryDy=0;endArrow=none;endFill=0;" edge="1" parent="1" source="soCObBApkF6ZxV0KR_g--9" target="soCObBApkF6ZxV0KR_g--17">
          <mxGeometry relative="1" as="geometry" />
        </mxCell>
        <mxCell id="soCObBApkF6ZxV0KR_g--110" style="edgeStyle=orthogonalEdgeStyle;curved=1;rounded=0;orthogonalLoop=1;jettySize=auto;html=1;exitX=1;exitY=0.25;exitDx=0;exitDy=0;entryX=0;entryY=1;entryDx=0;entryDy=0;endArrow=none;endFill=0;" edge="1" parent="1" source="soCObBApkF6ZxV0KR_g--9" target="soCObBApkF6ZxV0KR_g--108">
          <mxGeometry relative="1" as="geometry" />
        </mxCell>
        <mxCell id="soCObBApkF6ZxV0KR_g--111" style="edgeStyle=orthogonalEdgeStyle;curved=1;rounded=0;orthogonalLoop=1;jettySize=auto;html=1;exitX=1;exitY=0.75;exitDx=0;exitDy=0;entryX=0;entryY=0.5;entryDx=0;entryDy=0;endArrow=none;endFill=0;" edge="1" parent="1" source="soCObBApkF6ZxV0KR_g--9" target="soCObBApkF6ZxV0KR_g--109">
          <mxGeometry relative="1" as="geometry" />
        </mxCell>
        <mxCell id="soCObBApkF6ZxV0KR_g--9" value="GRUPOS" style="rounded=0;whiteSpace=wrap;html=1;" vertex="1" parent="1">
          <mxGeometry x="585" y="260" width="90" height="30" as="geometry" />
        </mxCell>
        <mxCell id="soCObBApkF6ZxV0KR_g--12" style="edgeStyle=orthogonalEdgeStyle;curved=1;rounded=0;orthogonalLoop=1;jettySize=auto;html=1;exitX=0.5;exitY=1;exitDx=0;exitDy=0;endArrow=none;endFill=0;" edge="1" parent="1" source="soCObBApkF6ZxV0KR_g--10" target="soCObBApkF6ZxV0KR_g--9">
          <mxGeometry relative="1" as="geometry" />
        </mxCell>
        <mxCell id="soCObBApkF6ZxV0KR_g--10" value="estar" style="rhombus;whiteSpace=wrap;html=1;" vertex="1" parent="1">
          <mxGeometry x="600" y="170" width="60" height="40" as="geometry" />
        </mxCell>
        <mxCell id="soCObBApkF6ZxV0KR_g--13" value="(0:N)" style="text;html=1;strokeColor=none;fillColor=none;align=center;verticalAlign=middle;whiteSpace=wrap;rounded=0;" vertex="1" parent="1">
          <mxGeometry x="620" y="120" width="60" height="30" as="geometry" />
        </mxCell>
        <mxCell id="soCObBApkF6ZxV0KR_g--14" value="(1:1)" style="text;html=1;strokeColor=none;fillColor=none;align=center;verticalAlign=middle;whiteSpace=wrap;rounded=0;" vertex="1" parent="1">
          <mxGeometry x="620" y="230" width="60" height="30" as="geometry" />
        </mxCell>
        <mxCell id="soCObBApkF6ZxV0KR_g--15" value="&lt;b&gt;N:1&lt;/b&gt;" style="text;html=1;strokeColor=none;fillColor=none;align=center;verticalAlign=middle;whiteSpace=wrap;rounded=0;" vertex="1" parent="1">
          <mxGeometry x="660" y="175" width="60" height="30" as="geometry" />
        </mxCell>
        <mxCell id="soCObBApkF6ZxV0KR_g--66" style="edgeStyle=orthogonalEdgeStyle;curved=1;rounded=0;orthogonalLoop=1;jettySize=auto;html=1;exitX=1;exitY=0.5;exitDx=0;exitDy=0;entryX=0;entryY=0.5;entryDx=0;entryDy=0;endArrow=none;endFill=0;" edge="1" parent="1" source="soCObBApkF6ZxV0KR_g--16" target="soCObBApkF6ZxV0KR_g--62">
          <mxGeometry relative="1" as="geometry" />
        </mxCell>
        <mxCell id="soCObBApkF6ZxV0KR_g--67" style="edgeStyle=orthogonalEdgeStyle;curved=1;rounded=0;orthogonalLoop=1;jettySize=auto;html=1;exitX=1;exitY=1;exitDx=0;exitDy=0;entryX=0;entryY=0.5;entryDx=0;entryDy=0;endArrow=none;endFill=0;" edge="1" parent="1" source="soCObBApkF6ZxV0KR_g--16" target="soCObBApkF6ZxV0KR_g--63">
          <mxGeometry relative="1" as="geometry" />
        </mxCell>
        <mxCell id="soCObBApkF6ZxV0KR_g--68" style="edgeStyle=orthogonalEdgeStyle;curved=1;rounded=0;orthogonalLoop=1;jettySize=auto;html=1;exitX=0.75;exitY=1;exitDx=0;exitDy=0;entryX=0;entryY=0.5;entryDx=0;entryDy=0;endArrow=none;endFill=0;" edge="1" parent="1" source="soCObBApkF6ZxV0KR_g--16" target="soCObBApkF6ZxV0KR_g--64">
          <mxGeometry relative="1" as="geometry" />
        </mxCell>
        <mxCell id="soCObBApkF6ZxV0KR_g--69" style="edgeStyle=orthogonalEdgeStyle;curved=1;rounded=0;orthogonalLoop=1;jettySize=auto;html=1;exitX=0.5;exitY=1;exitDx=0;exitDy=0;entryX=0.5;entryY=0;entryDx=0;entryDy=0;endArrow=none;endFill=0;" edge="1" parent="1" source="soCObBApkF6ZxV0KR_g--16" target="soCObBApkF6ZxV0KR_g--65">
          <mxGeometry relative="1" as="geometry" />
        </mxCell>
        <mxCell id="soCObBApkF6ZxV0KR_g--16" value="CATEGORIAS" style="rounded=0;whiteSpace=wrap;html=1;" vertex="1" parent="1">
          <mxGeometry x="585" y="470" width="90" height="30" as="geometry" />
        </mxCell>
        <mxCell id="soCObBApkF6ZxV0KR_g--19" style="edgeStyle=orthogonalEdgeStyle;curved=1;rounded=0;orthogonalLoop=1;jettySize=auto;html=1;exitX=0.5;exitY=1;exitDx=0;exitDy=0;entryX=0.5;entryY=0;entryDx=0;entryDy=0;endArrow=none;endFill=0;" edge="1" parent="1" source="soCObBApkF6ZxV0KR_g--17" target="soCObBApkF6ZxV0KR_g--16">
          <mxGeometry relative="1" as="geometry" />
        </mxCell>
        <mxCell id="soCObBApkF6ZxV0KR_g--17" value="estan" style="rhombus;whiteSpace=wrap;html=1;" vertex="1" parent="1">
          <mxGeometry x="585" y="370" width="90" height="40" as="geometry" />
        </mxCell>
        <mxCell id="soCObBApkF6ZxV0KR_g--20" value="(1:1)" style="text;html=1;strokeColor=none;fillColor=none;align=center;verticalAlign=middle;whiteSpace=wrap;rounded=0;" vertex="1" parent="1">
          <mxGeometry x="615" y="290" width="60" height="30" as="geometry" />
        </mxCell>
        <mxCell id="soCObBApkF6ZxV0KR_g--21" value="(1:N)" style="text;html=1;strokeColor=none;fillColor=none;align=center;verticalAlign=middle;whiteSpace=wrap;rounded=0;" vertex="1" parent="1">
          <mxGeometry x="640" y="440" width="60" height="30" as="geometry" />
        </mxCell>
        <mxCell id="soCObBApkF6ZxV0KR_g--22" value="&lt;b&gt;1:N&lt;/b&gt;" style="text;html=1;strokeColor=none;fillColor=none;align=center;verticalAlign=middle;whiteSpace=wrap;rounded=0;" vertex="1" parent="1">
          <mxGeometry x="660" y="375" width="60" height="30" as="geometry" />
        </mxCell>
        <mxCell id="soCObBApkF6ZxV0KR_g--25" style="edgeStyle=orthogonalEdgeStyle;curved=1;rounded=0;orthogonalLoop=1;jettySize=auto;html=1;exitX=0.5;exitY=0;exitDx=0;exitDy=0;entryX=0.5;entryY=1;entryDx=0;entryDy=0;endArrow=none;endFill=0;" edge="1" parent="1" source="soCObBApkF6ZxV0KR_g--23" target="soCObBApkF6ZxV0KR_g--24">
          <mxGeometry relative="1" as="geometry" />
        </mxCell>
        <mxCell id="soCObBApkF6ZxV0KR_g--92" style="edgeStyle=orthogonalEdgeStyle;curved=1;rounded=0;orthogonalLoop=1;jettySize=auto;html=1;exitX=0.75;exitY=1;exitDx=0;exitDy=0;entryX=0.5;entryY=0;entryDx=0;entryDy=0;endArrow=none;endFill=0;" edge="1" parent="1" source="soCObBApkF6ZxV0KR_g--23" target="soCObBApkF6ZxV0KR_g--89">
          <mxGeometry relative="1" as="geometry" />
        </mxCell>
        <mxCell id="soCObBApkF6ZxV0KR_g--93" style="edgeStyle=orthogonalEdgeStyle;curved=1;rounded=0;orthogonalLoop=1;jettySize=auto;html=1;exitX=0.5;exitY=1;exitDx=0;exitDy=0;entryX=1;entryY=0;entryDx=0;entryDy=0;endArrow=none;endFill=0;" edge="1" parent="1" source="soCObBApkF6ZxV0KR_g--23" target="soCObBApkF6ZxV0KR_g--91">
          <mxGeometry relative="1" as="geometry" />
        </mxCell>
        <mxCell id="soCObBApkF6ZxV0KR_g--94" style="edgeStyle=orthogonalEdgeStyle;curved=1;rounded=0;orthogonalLoop=1;jettySize=auto;html=1;exitX=0;exitY=1;exitDx=0;exitDy=0;entryX=1;entryY=0.5;entryDx=0;entryDy=0;endArrow=none;endFill=0;" edge="1" parent="1" source="soCObBApkF6ZxV0KR_g--23" target="soCObBApkF6ZxV0KR_g--88">
          <mxGeometry relative="1" as="geometry">
            <mxPoint x="170" y="390" as="targetPoint" />
          </mxGeometry>
        </mxCell>
        <mxCell id="soCObBApkF6ZxV0KR_g--95" style="edgeStyle=orthogonalEdgeStyle;curved=1;rounded=0;orthogonalLoop=1;jettySize=auto;html=1;exitX=0;exitY=0.5;exitDx=0;exitDy=0;entryX=1;entryY=0.5;entryDx=0;entryDy=0;endArrow=none;endFill=0;" edge="1" parent="1" source="soCObBApkF6ZxV0KR_g--23" target="soCObBApkF6ZxV0KR_g--90">
          <mxGeometry relative="1" as="geometry" />
        </mxCell>
        <mxCell id="soCObBApkF6ZxV0KR_g--96" style="edgeStyle=orthogonalEdgeStyle;curved=1;rounded=0;orthogonalLoop=1;jettySize=auto;html=1;exitX=0;exitY=0.25;exitDx=0;exitDy=0;endArrow=none;endFill=0;" edge="1" parent="1" source="soCObBApkF6ZxV0KR_g--23" target="soCObBApkF6ZxV0KR_g--87">
          <mxGeometry relative="1" as="geometry" />
        </mxCell>
        <mxCell id="soCObBApkF6ZxV0KR_g--97" style="edgeStyle=orthogonalEdgeStyle;curved=1;rounded=0;orthogonalLoop=1;jettySize=auto;html=1;exitX=0;exitY=0;exitDx=0;exitDy=0;entryX=1;entryY=1;entryDx=0;entryDy=0;endArrow=none;endFill=0;" edge="1" parent="1" source="soCObBApkF6ZxV0KR_g--23" target="soCObBApkF6ZxV0KR_g--86">
          <mxGeometry relative="1" as="geometry">
            <Array as="points">
              <mxPoint x="220" y="310" />
              <mxPoint x="198" y="310" />
              <mxPoint x="198" y="306" />
            </Array>
          </mxGeometry>
        </mxCell>
        <mxCell id="soCObBApkF6ZxV0KR_g--98" style="edgeStyle=orthogonalEdgeStyle;curved=1;rounded=0;orthogonalLoop=1;jettySize=auto;html=1;exitX=0;exitY=0;exitDx=0;exitDy=0;entryX=0.5;entryY=1;entryDx=0;entryDy=0;endArrow=none;endFill=0;" edge="1" parent="1" source="soCObBApkF6ZxV0KR_g--23" target="soCObBApkF6ZxV0KR_g--85">
          <mxGeometry relative="1" as="geometry" />
        </mxCell>
        <mxCell id="soCObBApkF6ZxV0KR_g--23" value="USUARIOS" style="rounded=0;whiteSpace=wrap;html=1;" vertex="1" parent="1">
          <mxGeometry x="235" y="320" width="90" height="30" as="geometry" />
        </mxCell>
        <mxCell id="soCObBApkF6ZxV0KR_g--26" style="edgeStyle=orthogonalEdgeStyle;curved=1;rounded=0;orthogonalLoop=1;jettySize=auto;html=1;exitX=0.5;exitY=0;exitDx=0;exitDy=0;entryX=0.25;entryY=1;entryDx=0;entryDy=0;endArrow=none;endFill=0;" edge="1" parent="1" source="soCObBApkF6ZxV0KR_g--24" target="soCObBApkF6ZxV0KR_g--2">
          <mxGeometry relative="1" as="geometry" />
        </mxCell>
        <mxCell id="soCObBApkF6ZxV0KR_g--101" style="edgeStyle=orthogonalEdgeStyle;curved=1;rounded=0;orthogonalLoop=1;jettySize=auto;html=1;exitX=0;exitY=0.5;exitDx=0;exitDy=0;entryX=1;entryY=0.75;entryDx=0;entryDy=0;endArrow=oval;endFill=0;" edge="1" parent="1" source="soCObBApkF6ZxV0KR_g--24">
          <mxGeometry relative="1" as="geometry">
            <mxPoint x="370" y="242.5" as="targetPoint" />
          </mxGeometry>
        </mxCell>
        <mxCell id="soCObBApkF6ZxV0KR_g--103" style="edgeStyle=orthogonalEdgeStyle;curved=1;rounded=0;orthogonalLoop=1;jettySize=auto;html=1;exitX=0;exitY=0;exitDx=0;exitDy=0;entryX=1;entryY=0.5;entryDx=0;entryDy=0;endArrow=oval;endFill=0;" edge="1" parent="1" source="soCObBApkF6ZxV0KR_g--24">
          <mxGeometry relative="1" as="geometry">
            <mxPoint x="395" y="215" as="targetPoint" />
            <Array as="points">
              <mxPoint x="430" y="220" />
              <mxPoint x="415" y="220" />
              <mxPoint x="415" y="215" />
            </Array>
          </mxGeometry>
        </mxCell>
        <mxCell id="soCObBApkF6ZxV0KR_g--24" value="comentar" style="rhombus;whiteSpace=wrap;html=1;" vertex="1" parent="1">
          <mxGeometry x="410" y="240" width="80" height="30" as="geometry" />
        </mxCell>
        <mxCell id="soCObBApkF6ZxV0KR_g--27" value="(0:N)" style="text;html=1;strokeColor=none;fillColor=none;align=center;verticalAlign=middle;whiteSpace=wrap;rounded=0;" vertex="1" parent="1">
          <mxGeometry x="240" y="290" width="60" height="30" as="geometry" />
        </mxCell>
        <mxCell id="soCObBApkF6ZxV0KR_g--28" value="(0:N)" style="text;html=1;strokeColor=none;fillColor=none;align=center;verticalAlign=middle;whiteSpace=wrap;rounded=0;" vertex="1" parent="1">
          <mxGeometry x="540" y="125" width="60" height="30" as="geometry" />
        </mxCell>
        <mxCell id="soCObBApkF6ZxV0KR_g--29" value="&lt;b&gt;N:M&lt;/b&gt;" style="text;html=1;strokeColor=none;fillColor=none;align=center;verticalAlign=middle;whiteSpace=wrap;rounded=0;" vertex="1" parent="1">
          <mxGeometry x="455" y="260" width="60" height="30" as="geometry" />
        </mxCell>
        <mxCell id="soCObBApkF6ZxV0KR_g--32" value="nombre" style="ellipse;whiteSpace=wrap;html=1;" vertex="1" parent="1">
          <mxGeometry x="190" y="10" width="70" height="30" as="geometry" />
        </mxCell>
        <mxCell id="soCObBApkF6ZxV0KR_g--33" value="apellido" style="ellipse;whiteSpace=wrap;html=1;" vertex="1" parent="1">
          <mxGeometry x="110" y="10" width="60" height="30" as="geometry" />
        </mxCell>
        <mxCell id="soCObBApkF6ZxV0KR_g--34" value="telefono" style="ellipse;whiteSpace=wrap;html=1;" vertex="1" parent="1">
          <mxGeometry x="20" y="10" width="60" height="35" as="geometry" />
        </mxCell>
        <mxCell id="soCObBApkF6ZxV0KR_g--35" value="&lt;u&gt;nombre_usuario&lt;/u&gt;" style="ellipse;whiteSpace=wrap;html=1;" vertex="1" parent="1">
          <mxGeometry y="60" width="100" height="40" as="geometry" />
        </mxCell>
        <mxCell id="soCObBApkF6ZxV0KR_g--36" value="contraseÃ±a" style="ellipse;whiteSpace=wrap;html=1;" vertex="1" parent="1">
          <mxGeometry x="15" y="115" width="70" height="35" as="geometry" />
        </mxCell>
        <mxCell id="soCObBApkF6ZxV0KR_g--37" value="estado" style="ellipse;whiteSpace=wrap;html=1;" vertex="1" parent="1">
          <mxGeometry x="130" y="170" width="70" height="30" as="geometry" />
        </mxCell>
        <mxCell id="soCObBApkF6ZxV0KR_g--38" value="fecha_registro" style="ellipse;whiteSpace=wrap;html=1;" vertex="1" parent="1">
          <mxGeometry x="30" y="165" width="90" height="40" as="geometry" />
        </mxCell>
        <mxCell id="soCObBApkF6ZxV0KR_g--39" value="avatar" style="ellipse;whiteSpace=wrap;html=1;" vertex="1" parent="1">
          <mxGeometry x="210" y="150" width="50" height="30" as="geometry" />
        </mxCell>
        <mxCell id="soCObBApkF6ZxV0KR_g--49" value="titulo" style="ellipse;whiteSpace=wrap;html=1;" vertex="1" parent="1">
          <mxGeometry x="560" y="5" width="60" height="25" as="geometry" />
        </mxCell>
        <mxCell id="soCObBApkF6ZxV0KR_g--50" value="cont_breve" style="ellipse;whiteSpace=wrap;html=1;" vertex="1" parent="1">
          <mxGeometry x="635" y="5" width="70" height="45" as="geometry" />
        </mxCell>
        <mxCell id="soCObBApkF6ZxV0KR_g--51" value="cont_comp" style="ellipse;whiteSpace=wrap;html=1;" vertex="1" parent="1">
          <mxGeometry x="720" y="10" width="70" height="35" as="geometry" />
        </mxCell>
        <mxCell id="soCObBApkF6ZxV0KR_g--52" value="imagen" style="ellipse;whiteSpace=wrap;html=1;" vertex="1" parent="1">
          <mxGeometry x="750" y="60" width="60" height="30" as="geometry" />
        </mxCell>
        <mxCell id="soCObBApkF6ZxV0KR_g--53" value="fecha_pub" style="ellipse;whiteSpace=wrap;html=1;" vertex="1" parent="1">
          <mxGeometry x="745" y="100" width="70" height="30" as="geometry" />
        </mxCell>
        <mxCell id="soCObBApkF6ZxV0KR_g--54" value="estado" style="ellipse;whiteSpace=wrap;html=1;" vertex="1" parent="1">
          <mxGeometry x="745" y="140" width="60" height="40" as="geometry" />
        </mxCell>
        <mxCell id="soCObBApkF6ZxV0KR_g--62" value="&lt;u&gt;nombre&lt;/u&gt;" style="ellipse;whiteSpace=wrap;html=1;" vertex="1" parent="1">
          <mxGeometry x="730" y="440" width="60" height="30" as="geometry" />
        </mxCell>
        <mxCell id="soCObBApkF6ZxV0KR_g--63" value="descripcion" style="ellipse;whiteSpace=wrap;html=1;" vertex="1" parent="1">
          <mxGeometry x="730" y="490" width="75" height="40" as="geometry" />
        </mxCell>
        <mxCell id="soCObBApkF6ZxV0KR_g--64" value="imagen" style="ellipse;whiteSpace=wrap;html=1;" vertex="1" parent="1">
          <mxGeometry x="690" y="550" width="70" height="30" as="geometry" />
        </mxCell>
        <mxCell id="soCObBApkF6ZxV0KR_g--65" value="estado" style="ellipse;whiteSpace=wrap;html=1;" vertex="1" parent="1">
          <mxGeometry x="590" y="550" width="60" height="30" as="geometry" />
        </mxCell>
        <mxCell id="soCObBApkF6ZxV0KR_g--70" style="edgeStyle=orthogonalEdgeStyle;curved=1;rounded=0;orthogonalLoop=1;jettySize=auto;html=1;exitX=1;exitY=0.5;exitDx=0;exitDy=0;entryX=0.5;entryY=0;entryDx=0;entryDy=0;endArrow=none;endFill=0;" edge="1" parent="1" source="soCObBApkF6ZxV0KR_g--74" target="soCObBApkF6ZxV0KR_g--76">
          <mxGeometry relative="1" as="geometry" />
        </mxCell>
        <mxCell id="soCObBApkF6ZxV0KR_g--71" style="edgeStyle=orthogonalEdgeStyle;curved=1;rounded=0;orthogonalLoop=1;jettySize=auto;html=1;exitX=1;exitY=1;exitDx=0;exitDy=0;entryX=0.5;entryY=0;entryDx=0;entryDy=0;endArrow=none;endFill=0;" edge="1" parent="1" source="soCObBApkF6ZxV0KR_g--74" target="soCObBApkF6ZxV0KR_g--77">
          <mxGeometry relative="1" as="geometry" />
        </mxCell>
        <mxCell id="soCObBApkF6ZxV0KR_g--72" style="edgeStyle=orthogonalEdgeStyle;curved=1;rounded=0;orthogonalLoop=1;jettySize=auto;html=1;exitX=0;exitY=1;exitDx=0;exitDy=0;entryX=1;entryY=0;entryDx=0;entryDy=0;endArrow=none;endFill=0;" edge="1" parent="1" source="soCObBApkF6ZxV0KR_g--74" target="soCObBApkF6ZxV0KR_g--78">
          <mxGeometry relative="1" as="geometry" />
        </mxCell>
        <mxCell id="soCObBApkF6ZxV0KR_g--73" style="edgeStyle=orthogonalEdgeStyle;curved=1;rounded=0;orthogonalLoop=1;jettySize=auto;html=1;exitX=0;exitY=0.5;exitDx=0;exitDy=0;entryX=1;entryY=0.5;entryDx=0;entryDy=0;endArrow=none;endFill=0;" edge="1" parent="1" source="soCObBApkF6ZxV0KR_g--74" target="soCObBApkF6ZxV0KR_g--79">
          <mxGeometry relative="1" as="geometry" />
        </mxCell>
        <mxCell id="soCObBApkF6ZxV0KR_g--81" style="edgeStyle=orthogonalEdgeStyle;curved=1;rounded=0;orthogonalLoop=1;jettySize=auto;html=1;exitX=1;exitY=0.5;exitDx=0;exitDy=0;endArrow=none;endFill=0;" edge="1" parent="1" source="soCObBApkF6ZxV0KR_g--74" target="soCObBApkF6ZxV0KR_g--80">
          <mxGeometry relative="1" as="geometry" />
        </mxCell>
        <mxCell id="soCObBApkF6ZxV0KR_g--74" value="SUBCATEGORIAS" style="rounded=0;whiteSpace=wrap;html=1;" vertex="1" parent="1">
          <mxGeometry x="225" y="470" width="110" height="30" as="geometry" />
        </mxCell>
        <mxCell id="soCObBApkF6ZxV0KR_g--75" value="(1:N)" style="text;html=1;strokeColor=none;fillColor=none;align=center;verticalAlign=middle;whiteSpace=wrap;rounded=0;" vertex="1" parent="1">
          <mxGeometry x="330" y="460" width="60" height="30" as="geometry" />
        </mxCell>
        <mxCell id="soCObBApkF6ZxV0KR_g--76" value="&lt;u&gt;nombre&lt;/u&gt;" style="ellipse;whiteSpace=wrap;html=1;" vertex="1" parent="1">
          <mxGeometry x="335" y="555" width="60" height="30" as="geometry" />
        </mxCell>
        <mxCell id="soCObBApkF6ZxV0KR_g--77" value="descripcion" style="ellipse;whiteSpace=wrap;html=1;" vertex="1" parent="1">
          <mxGeometry x="240" y="545" width="75" height="40" as="geometry" />
        </mxCell>
        <mxCell id="soCObBApkF6ZxV0KR_g--78" value="imagen" style="ellipse;whiteSpace=wrap;html=1;" vertex="1" parent="1">
          <mxGeometry x="165" y="540" width="70" height="30" as="geometry" />
        </mxCell>
        <mxCell id="soCObBApkF6ZxV0KR_g--79" value="estado" style="ellipse;whiteSpace=wrap;html=1;" vertex="1" parent="1">
          <mxGeometry x="115" y="500" width="60" height="30" as="geometry" />
        </mxCell>
        <mxCell id="soCObBApkF6ZxV0KR_g--82" style="edgeStyle=orthogonalEdgeStyle;curved=1;rounded=0;orthogonalLoop=1;jettySize=auto;html=1;exitX=1;exitY=0.5;exitDx=0;exitDy=0;entryX=0;entryY=0.5;entryDx=0;entryDy=0;endArrow=none;endFill=0;" edge="1" parent="1" source="soCObBApkF6ZxV0KR_g--80" target="soCObBApkF6ZxV0KR_g--16">
          <mxGeometry relative="1" as="geometry" />
        </mxCell>
        <mxCell id="soCObBApkF6ZxV0KR_g--80" value="pertenecen" style="rhombus;whiteSpace=wrap;html=1;" vertex="1" parent="1">
          <mxGeometry x="420" y="465" width="80" height="40" as="geometry" />
        </mxCell>
        <mxCell id="soCObBApkF6ZxV0KR_g--83" value="(1:1)" style="text;html=1;strokeColor=none;fillColor=none;align=center;verticalAlign=middle;whiteSpace=wrap;rounded=0;" vertex="1" parent="1">
          <mxGeometry x="540" y="460" width="60" height="30" as="geometry" />
        </mxCell>
        <mxCell id="soCObBApkF6ZxV0KR_g--84" value="&lt;b&gt;N:1&lt;/b&gt;" style="text;html=1;strokeColor=none;fillColor=none;align=center;verticalAlign=middle;whiteSpace=wrap;rounded=0;" vertex="1" parent="1">
          <mxGeometry x="430" y="440" width="60" height="30" as="geometry" />
        </mxCell>
        <mxCell id="soCObBApkF6ZxV0KR_g--85" value="nombre" style="ellipse;whiteSpace=wrap;html=1;" vertex="1" parent="1">
          <mxGeometry x="190" y="250" width="60" height="30" as="geometry" />
        </mxCell>
        <mxCell id="soCObBApkF6ZxV0KR_g--86" value="apellido" style="ellipse;whiteSpace=wrap;html=1;" vertex="1" parent="1">
          <mxGeometry x="110" y="270" width="60" height="30" as="geometry" />
        </mxCell>
        <mxCell id="soCObBApkF6ZxV0KR_g--87" value="avatar" style="ellipse;whiteSpace=wrap;html=1;" vertex="1" parent="1">
          <mxGeometry x="85" y="310" width="50" height="30" as="geometry" />
        </mxCell>
        <mxCell id="soCObBApkF6ZxV0KR_g--88" value="&lt;u&gt;email&lt;/u&gt;" style="ellipse;whiteSpace=wrap;html=1;" vertex="1" parent="1">
          <mxGeometry x="110" y="375" width="50" height="30" as="geometry" />
        </mxCell>
        <mxCell id="soCObBApkF6ZxV0KR_g--89" value="nombre_usuario" style="ellipse;whiteSpace=wrap;html=1;" vertex="1" parent="1">
          <mxGeometry x="260" y="390" width="110" height="35" as="geometry" />
        </mxCell>
        <mxCell id="soCObBApkF6ZxV0KR_g--90" value="contraseÃ±a" style="ellipse;whiteSpace=wrap;html=1;" vertex="1" parent="1">
          <mxGeometry x="50" y="345" width="80" height="30" as="geometry" />
        </mxCell>
        <mxCell id="soCObBApkF6ZxV0KR_g--91" value="fecha_registro" style="ellipse;whiteSpace=wrap;html=1;" vertex="1" parent="1">
          <mxGeometry x="160" y="400" width="90" height="35" as="geometry" />
        </mxCell>
        <mxCell id="soCObBApkF6ZxV0KR_g--104" value="&lt;u&gt;ID&lt;/u&gt;" style="ellipse;whiteSpace=wrap;html=1;" vertex="1" parent="1">
          <mxGeometry x="355" y="200" width="40" height="25" as="geometry" />
        </mxCell>
        <mxCell id="soCObBApkF6ZxV0KR_g--105" value="texto" style="ellipse;whiteSpace=wrap;html=1;" vertex="1" parent="1">
          <mxGeometry x="330" y="230" width="40" height="25" as="geometry" />
        </mxCell>
        <mxCell id="soCObBApkF6ZxV0KR_g--106" value="&lt;u&gt;ID&lt;/u&gt;" style="ellipse;whiteSpace=wrap;html=1;" vertex="1" parent="1">
          <mxGeometry x="500" y="15" width="40" height="25" as="geometry" />
        </mxCell>
        <mxCell id="soCObBApkF6ZxV0KR_g--108" value="nombre" style="ellipse;whiteSpace=wrap;html=1;" vertex="1" parent="1">
          <mxGeometry x="705" y="220" width="65" height="30" as="geometry" />
        </mxCell>
        <mxCell id="soCObBApkF6ZxV0KR_g--109" value="&lt;u&gt;ID&lt;/u&gt;" style="ellipse;whiteSpace=wrap;html=1;" vertex="1" parent="1">
          <mxGeometry x="730" y="270" width="40" height="25" as="geometry" />
        </mxCell>
      </root>
    </mxGraphModel>
  </diagram>
  <diagram id="NHXr-4ZIJbblfPnKKx_b" name="PÃ¡gina-11">
    <mxGraphModel dx="880" dy="452" grid="1" gridSize="10" guides="1" tooltips="1" connect="1" arrows="1" fold="1" page="1" pageScale="1" pageWidth="827" pageHeight="1169" math="0" shadow="0">
      <root>
        <mxCell id="0" />
        <mxCell id="1" parent="0" />
        <mxCell id="VR_xDyC1cmRMU5mgUdDG-8" style="edgeStyle=orthogonalEdgeStyle;rounded=0;orthogonalLoop=1;jettySize=auto;html=1;exitX=1;exitY=0.5;exitDx=0;exitDy=0;entryX=0;entryY=0.5;entryDx=0;entryDy=0;endArrow=none;endFill=0;" edge="1" parent="1" source="VR_xDyC1cmRMU5mgUdDG-1" target="VR_xDyC1cmRMU5mgUdDG-5">
          <mxGeometry relative="1" as="geometry" />
        </mxCell>
        <mxCell id="VR_xDyC1cmRMU5mgUdDG-21" style="edgeStyle=orthogonalEdgeStyle;rounded=0;orthogonalLoop=1;jettySize=auto;html=1;exitX=0.5;exitY=1;exitDx=0;exitDy=0;entryX=0.5;entryY=0;entryDx=0;entryDy=0;endArrow=none;endFill=0;" edge="1" parent="1" source="VR_xDyC1cmRMU5mgUdDG-1" target="VR_xDyC1cmRMU5mgUdDG-20">
          <mxGeometry relative="1" as="geometry" />
        </mxCell>
        <mxCell id="VR_xDyC1cmRMU5mgUdDG-29" style="edgeStyle=orthogonalEdgeStyle;rounded=0;orthogonalLoop=1;jettySize=auto;html=1;exitX=0;exitY=0.5;exitDx=0;exitDy=0;entryX=0.989;entryY=0.703;entryDx=0;entryDy=0;entryPerimeter=0;endArrow=none;endFill=0;" edge="1" parent="1" source="VR_xDyC1cmRMU5mgUdDG-1" target="VR_xDyC1cmRMU5mgUdDG-28">
          <mxGeometry relative="1" as="geometry" />
        </mxCell>
        <mxCell id="VR_xDyC1cmRMU5mgUdDG-30" style="edgeStyle=orthogonalEdgeStyle;rounded=0;orthogonalLoop=1;jettySize=auto;html=1;exitX=0.25;exitY=0;exitDx=0;exitDy=0;entryX=1;entryY=0.963;entryDx=0;entryDy=0;entryPerimeter=0;endArrow=none;endFill=0;" edge="1" parent="1" source="VR_xDyC1cmRMU5mgUdDG-1" target="VR_xDyC1cmRMU5mgUdDG-27">
          <mxGeometry relative="1" as="geometry" />
        </mxCell>
        <mxCell id="VR_xDyC1cmRMU5mgUdDG-1" value="MEDICOS" style="rounded=0;whiteSpace=wrap;html=1;" vertex="1" parent="1">
          <mxGeometry x="120" y="60" width="70" height="30" as="geometry" />
        </mxCell>
        <mxCell id="VR_xDyC1cmRMU5mgUdDG-15" style="edgeStyle=orthogonalEdgeStyle;rounded=0;orthogonalLoop=1;jettySize=auto;html=1;exitX=0.5;exitY=1;exitDx=0;exitDy=0;entryX=0.5;entryY=0;entryDx=0;entryDy=0;endArrow=none;endFill=0;" edge="1" parent="1" source="VR_xDyC1cmRMU5mgUdDG-2" target="VR_xDyC1cmRMU5mgUdDG-14">
          <mxGeometry relative="1" as="geometry" />
        </mxCell>
        <mxCell id="VR_xDyC1cmRMU5mgUdDG-2" value="PACIENTES" style="rounded=0;whiteSpace=wrap;html=1;" vertex="1" parent="1">
          <mxGeometry x="470" y="60" width="90" height="30" as="geometry" />
        </mxCell>
        <mxCell id="VR_xDyC1cmRMU5mgUdDG-3" value="ESPECIALIDADES" style="rounded=0;whiteSpace=wrap;html=1;" vertex="1" parent="1">
          <mxGeometry x="95" y="250" width="120" height="40" as="geometry" />
        </mxCell>
        <mxCell id="VR_xDyC1cmRMU5mgUdDG-33" style="edgeStyle=orthogonalEdgeStyle;rounded=0;orthogonalLoop=1;jettySize=auto;html=1;exitX=0.75;exitY=1;exitDx=0;exitDy=0;endArrow=none;endFill=0;" edge="1" parent="1" source="VR_xDyC1cmRMU5mgUdDG-4" target="VR_xDyC1cmRMU5mgUdDG-32">
          <mxGeometry relative="1" as="geometry" />
        </mxCell>
        <mxCell id="VR_xDyC1cmRMU5mgUdDG-34" style="edgeStyle=orthogonalEdgeStyle;rounded=0;orthogonalLoop=1;jettySize=auto;html=1;exitX=1;exitY=0.5;exitDx=0;exitDy=0;endArrow=none;endFill=0;" edge="1" parent="1" source="VR_xDyC1cmRMU5mgUdDG-4" target="VR_xDyC1cmRMU5mgUdDG-31">
          <mxGeometry relative="1" as="geometry" />
        </mxCell>
        <mxCell id="VR_xDyC1cmRMU5mgUdDG-4" value="CITAS" style="rounded=0;whiteSpace=wrap;html=1;" vertex="1" parent="1">
          <mxGeometry x="485" y="260" width="60" height="30" as="geometry" />
        </mxCell>
        <mxCell id="VR_xDyC1cmRMU5mgUdDG-9" style="edgeStyle=orthogonalEdgeStyle;rounded=0;orthogonalLoop=1;jettySize=auto;html=1;exitX=1;exitY=0.5;exitDx=0;exitDy=0;entryX=0;entryY=0.5;entryDx=0;entryDy=0;endArrow=none;endFill=0;" edge="1" parent="1" source="VR_xDyC1cmRMU5mgUdDG-5" target="VR_xDyC1cmRMU5mgUdDG-2">
          <mxGeometry relative="1" as="geometry" />
        </mxCell>
        <mxCell id="VR_xDyC1cmRMU5mgUdDG-5" value="atienden" style="rhombus;whiteSpace=wrap;html=1;" vertex="1" parent="1">
          <mxGeometry x="280" y="57.5" width="80" height="35" as="geometry" />
        </mxCell>
        <mxCell id="VR_xDyC1cmRMU5mgUdDG-11" value="(1:N)" style="text;html=1;strokeColor=none;fillColor=none;align=center;verticalAlign=middle;whiteSpace=wrap;rounded=0;" vertex="1" parent="1">
          <mxGeometry x="180" y="50" width="60" height="30" as="geometry" />
        </mxCell>
        <mxCell id="VR_xDyC1cmRMU5mgUdDG-12" value="(1:N)" style="text;html=1;strokeColor=none;fillColor=none;align=center;verticalAlign=middle;whiteSpace=wrap;rounded=0;" vertex="1" parent="1">
          <mxGeometry x="420" y="50" width="60" height="30" as="geometry" />
        </mxCell>
        <mxCell id="VR_xDyC1cmRMU5mgUdDG-13" value="&lt;b&gt;N:M&lt;/b&gt;" style="text;html=1;strokeColor=none;fillColor=none;align=center;verticalAlign=middle;whiteSpace=wrap;rounded=0;" vertex="1" parent="1">
          <mxGeometry x="290" y="28" width="60" height="30" as="geometry" />
        </mxCell>
        <mxCell id="VR_xDyC1cmRMU5mgUdDG-16" style="edgeStyle=orthogonalEdgeStyle;rounded=0;orthogonalLoop=1;jettySize=auto;html=1;exitX=0.5;exitY=1;exitDx=0;exitDy=0;entryX=0.5;entryY=0;entryDx=0;entryDy=0;endArrow=none;endFill=0;" edge="1" parent="1" source="VR_xDyC1cmRMU5mgUdDG-14" target="VR_xDyC1cmRMU5mgUdDG-4">
          <mxGeometry relative="1" as="geometry" />
        </mxCell>
        <mxCell id="VR_xDyC1cmRMU5mgUdDG-14" value="tener" style="rhombus;whiteSpace=wrap;html=1;" vertex="1" parent="1">
          <mxGeometry x="480" y="160" width="70" height="40" as="geometry" />
        </mxCell>
        <mxCell id="VR_xDyC1cmRMU5mgUdDG-17" value="(1:1)" style="text;html=1;strokeColor=none;fillColor=none;align=center;verticalAlign=middle;whiteSpace=wrap;rounded=0;" vertex="1" parent="1">
          <mxGeometry x="510" y="92.5" width="60" height="30" as="geometry" />
        </mxCell>
        <mxCell id="VR_xDyC1cmRMU5mgUdDG-18" value="(1:N)" style="text;html=1;strokeColor=none;fillColor=none;align=center;verticalAlign=middle;whiteSpace=wrap;rounded=0;" vertex="1" parent="1">
          <mxGeometry x="510" y="230" width="60" height="30" as="geometry" />
        </mxCell>
        <mxCell id="VR_xDyC1cmRMU5mgUdDG-19" value="&lt;b&gt;1:N&lt;/b&gt;" style="text;html=1;strokeColor=none;fillColor=none;align=center;verticalAlign=middle;whiteSpace=wrap;rounded=0;" vertex="1" parent="1">
          <mxGeometry x="540" y="165" width="60" height="30" as="geometry" />
        </mxCell>
        <mxCell id="VR_xDyC1cmRMU5mgUdDG-23" style="edgeStyle=orthogonalEdgeStyle;rounded=0;orthogonalLoop=1;jettySize=auto;html=1;exitX=0.5;exitY=1;exitDx=0;exitDy=0;entryX=0.5;entryY=0;entryDx=0;entryDy=0;endArrow=none;endFill=0;" edge="1" parent="1" source="VR_xDyC1cmRMU5mgUdDG-20" target="VR_xDyC1cmRMU5mgUdDG-3">
          <mxGeometry relative="1" as="geometry" />
        </mxCell>
        <mxCell id="VR_xDyC1cmRMU5mgUdDG-20" value="pertenecen" style="rhombus;whiteSpace=wrap;html=1;" vertex="1" parent="1">
          <mxGeometry x="112.5" y="150" width="85" height="40" as="geometry" />
        </mxCell>
        <mxCell id="VR_xDyC1cmRMU5mgUdDG-24" value="(1:1)" style="text;html=1;strokeColor=none;fillColor=none;align=center;verticalAlign=middle;whiteSpace=wrap;rounded=0;" vertex="1" parent="1">
          <mxGeometry x="160" y="220" width="60" height="30" as="geometry" />
        </mxCell>
        <mxCell id="VR_xDyC1cmRMU5mgUdDG-25" value="(1:N)" style="text;html=1;strokeColor=none;fillColor=none;align=center;verticalAlign=middle;whiteSpace=wrap;rounded=0;" vertex="1" parent="1">
          <mxGeometry x="155" y="92.5" width="60" height="30" as="geometry" />
        </mxCell>
        <mxCell id="VR_xDyC1cmRMU5mgUdDG-26" value="&lt;b&gt;N:1&lt;/b&gt;" style="text;html=1;strokeColor=none;fillColor=none;align=center;verticalAlign=middle;whiteSpace=wrap;rounded=0;" vertex="1" parent="1">
          <mxGeometry x="180" y="155" width="60" height="30" as="geometry" />
        </mxCell>
        <mxCell id="VR_xDyC1cmRMU5mgUdDG-27" value="nombre" style="ellipse;whiteSpace=wrap;html=1;" vertex="1" parent="1">
          <mxGeometry x="50" y="3" width="60" height="27" as="geometry" />
        </mxCell>
        <mxCell id="VR_xDyC1cmRMU5mgUdDG-28" value="&lt;u&gt;nro_colegiado&lt;/u&gt;" style="ellipse;whiteSpace=wrap;html=1;" vertex="1" parent="1">
          <mxGeometry x="10" y="43" width="90" height="37" as="geometry" />
        </mxCell>
        <mxCell id="VR_xDyC1cmRMU5mgUdDG-31" value="fecha" style="ellipse;whiteSpace=wrap;html=1;" vertex="1" parent="1">
          <mxGeometry x="560" y="280" width="50" height="30" as="geometry" />
        </mxCell>
        <mxCell id="VR_xDyC1cmRMU5mgUdDG-32" value="hora" style="ellipse;whiteSpace=wrap;html=1;" vertex="1" parent="1">
          <mxGeometry x="540" y="320" width="40" height="30" as="geometry" />
        </mxCell>
      </root>
    </mxGraphModel>
  </diagram>
  <diagram id="qndsIYPcMPj-66125Aby" name="PÃ¡gina-12">
    <mxGraphModel dx="880" dy="452" grid="1" gridSize="10" guides="1" tooltips="1" connect="1" arrows="1" fold="1" page="1" pageScale="1" pageWidth="827" pageHeight="1169" math="0" shadow="0">
      <root>
        <mxCell id="0" />
        <mxCell id="1" parent="0" />
        <mxCell id="Eu43QBAOq91iyaiTCy1v-6" style="edgeStyle=orthogonalEdgeStyle;rounded=0;orthogonalLoop=1;jettySize=auto;html=1;exitX=1;exitY=0.5;exitDx=0;exitDy=0;entryX=0;entryY=0.5;entryDx=0;entryDy=0;" edge="1" parent="1" source="Eu43QBAOq91iyaiTCy1v-1" target="Eu43QBAOq91iyaiTCy1v-5">
          <mxGeometry relative="1" as="geometry" />
        </mxCell>
        <mxCell id="Eu43QBAOq91iyaiTCy1v-24" style="edgeStyle=orthogonalEdgeStyle;rounded=0;orthogonalLoop=1;jettySize=auto;html=1;exitX=0.25;exitY=0;exitDx=0;exitDy=0;entryX=0.667;entryY=1.033;entryDx=0;entryDy=0;entryPerimeter=0;" edge="1" parent="1" source="Eu43QBAOq91iyaiTCy1v-1" target="Eu43QBAOq91iyaiTCy1v-20">
          <mxGeometry relative="1" as="geometry" />
        </mxCell>
        <mxCell id="Eu43QBAOq91iyaiTCy1v-25" style="edgeStyle=orthogonalEdgeStyle;rounded=0;orthogonalLoop=1;jettySize=auto;html=1;exitX=0;exitY=0;exitDx=0;exitDy=0;entryX=0.983;entryY=0.767;entryDx=0;entryDy=0;entryPerimeter=0;" edge="1" parent="1" source="Eu43QBAOq91iyaiTCy1v-1" target="Eu43QBAOq91iyaiTCy1v-21">
          <mxGeometry relative="1" as="geometry" />
        </mxCell>
        <mxCell id="Eu43QBAOq91iyaiTCy1v-26" style="edgeStyle=orthogonalEdgeStyle;rounded=0;orthogonalLoop=1;jettySize=auto;html=1;exitX=0;exitY=0.75;exitDx=0;exitDy=0;entryX=1;entryY=0.5;entryDx=0;entryDy=0;" edge="1" parent="1" source="Eu43QBAOq91iyaiTCy1v-1" target="Eu43QBAOq91iyaiTCy1v-22">
          <mxGeometry relative="1" as="geometry" />
        </mxCell>
        <mxCell id="Eu43QBAOq91iyaiTCy1v-27" style="edgeStyle=orthogonalEdgeStyle;rounded=0;orthogonalLoop=1;jettySize=auto;html=1;exitX=0.25;exitY=1;exitDx=0;exitDy=0;entryX=0.738;entryY=0.125;entryDx=0;entryDy=0;entryPerimeter=0;" edge="1" parent="1" source="Eu43QBAOq91iyaiTCy1v-1" target="Eu43QBAOq91iyaiTCy1v-23">
          <mxGeometry relative="1" as="geometry" />
        </mxCell>
        <mxCell id="Eu43QBAOq91iyaiTCy1v-1" value="PELICULAS" style="rounded=0;whiteSpace=wrap;html=1;" vertex="1" parent="1">
          <mxGeometry x="100" y="75" width="90" height="40" as="geometry" />
        </mxCell>
        <mxCell id="Eu43QBAOq91iyaiTCy1v-9" style="edgeStyle=orthogonalEdgeStyle;rounded=0;orthogonalLoop=1;jettySize=auto;html=1;exitX=0.5;exitY=1;exitDx=0;exitDy=0;entryX=0.5;entryY=0;entryDx=0;entryDy=0;" edge="1" parent="1" source="Eu43QBAOq91iyaiTCy1v-2" target="Eu43QBAOq91iyaiTCy1v-8">
          <mxGeometry relative="1" as="geometry" />
        </mxCell>
        <mxCell id="Eu43QBAOq91iyaiTCy1v-2" value="SALAS" style="rounded=0;whiteSpace=wrap;html=1;" vertex="1" parent="1">
          <mxGeometry x="510" y="80" width="70" height="30" as="geometry" />
        </mxCell>
        <mxCell id="Eu43QBAOq91iyaiTCy1v-12" style="edgeStyle=orthogonalEdgeStyle;rounded=0;orthogonalLoop=1;jettySize=auto;html=1;exitX=0;exitY=0.5;exitDx=0;exitDy=0;entryX=1;entryY=0.5;entryDx=0;entryDy=0;" edge="1" parent="1" source="Eu43QBAOq91iyaiTCy1v-3" target="Eu43QBAOq91iyaiTCy1v-11">
          <mxGeometry relative="1" as="geometry" />
        </mxCell>
        <mxCell id="Eu43QBAOq91iyaiTCy1v-3" value="ESPECTADORES" style="rounded=0;whiteSpace=wrap;html=1;" vertex="1" parent="1">
          <mxGeometry x="485" y="290" width="120" height="40" as="geometry" />
        </mxCell>
        <mxCell id="Eu43QBAOq91iyaiTCy1v-43" style="edgeStyle=orthogonalEdgeStyle;rounded=0;orthogonalLoop=1;jettySize=auto;html=1;exitX=0.5;exitY=0;exitDx=0;exitDy=0;entryX=0.5;entryY=1;entryDx=0;entryDy=0;" edge="1" parent="1" source="Eu43QBAOq91iyaiTCy1v-4" target="Eu43QBAOq91iyaiTCy1v-38">
          <mxGeometry relative="1" as="geometry" />
        </mxCell>
        <mxCell id="Eu43QBAOq91iyaiTCy1v-4" value="ENTRADAS" style="rounded=0;whiteSpace=wrap;html=1;" vertex="1" parent="1">
          <mxGeometry x="120" y="295" width="90" height="30" as="geometry" />
        </mxCell>
        <mxCell id="Eu43QBAOq91iyaiTCy1v-7" style="edgeStyle=orthogonalEdgeStyle;rounded=0;orthogonalLoop=1;jettySize=auto;html=1;exitX=1;exitY=0.5;exitDx=0;exitDy=0;entryX=0;entryY=0.5;entryDx=0;entryDy=0;" edge="1" parent="1" source="Eu43QBAOq91iyaiTCy1v-5" target="Eu43QBAOq91iyaiTCy1v-2">
          <mxGeometry relative="1" as="geometry" />
        </mxCell>
        <mxCell id="Eu43QBAOq91iyaiTCy1v-5" value="proyectan" style="rhombus;whiteSpace=wrap;html=1;" vertex="1" parent="1">
          <mxGeometry x="310" y="70" width="80" height="50" as="geometry" />
        </mxCell>
        <mxCell id="Eu43QBAOq91iyaiTCy1v-10" style="edgeStyle=orthogonalEdgeStyle;rounded=0;orthogonalLoop=1;jettySize=auto;html=1;exitX=0.5;exitY=1;exitDx=0;exitDy=0;" edge="1" parent="1" source="Eu43QBAOq91iyaiTCy1v-8" target="Eu43QBAOq91iyaiTCy1v-3">
          <mxGeometry relative="1" as="geometry" />
        </mxCell>
        <mxCell id="Eu43QBAOq91iyaiTCy1v-8" value="estan" style="rhombus;whiteSpace=wrap;html=1;" vertex="1" parent="1">
          <mxGeometry x="505" y="170" width="80" height="40" as="geometry" />
        </mxCell>
        <mxCell id="Eu43QBAOq91iyaiTCy1v-13" style="edgeStyle=orthogonalEdgeStyle;rounded=0;orthogonalLoop=1;jettySize=auto;html=1;exitX=0;exitY=0.5;exitDx=0;exitDy=0;entryX=1;entryY=0.5;entryDx=0;entryDy=0;" edge="1" parent="1" source="Eu43QBAOq91iyaiTCy1v-11" target="Eu43QBAOq91iyaiTCy1v-4">
          <mxGeometry relative="1" as="geometry" />
        </mxCell>
        <mxCell id="Eu43QBAOq91iyaiTCy1v-11" value="compran" style="rhombus;whiteSpace=wrap;html=1;" vertex="1" parent="1">
          <mxGeometry x="310" y="285" width="80" height="50" as="geometry" />
        </mxCell>
        <mxCell id="Eu43QBAOq91iyaiTCy1v-17" value="(1:1)" style="text;html=1;strokeColor=none;fillColor=none;align=center;verticalAlign=middle;whiteSpace=wrap;rounded=0;" vertex="1" parent="1">
          <mxGeometry x="180" y="60" width="60" height="30" as="geometry" />
        </mxCell>
        <mxCell id="Eu43QBAOq91iyaiTCy1v-18" value="(1:N)" style="text;html=1;strokeColor=none;fillColor=none;align=center;verticalAlign=middle;whiteSpace=wrap;rounded=0;" vertex="1" parent="1">
          <mxGeometry x="460" y="70" width="60" height="30" as="geometry" />
        </mxCell>
        <mxCell id="Eu43QBAOq91iyaiTCy1v-19" value="N:M" style="text;html=1;strokeColor=none;fillColor=none;align=center;verticalAlign=middle;whiteSpace=wrap;rounded=0;" vertex="1" parent="1">
          <mxGeometry x="320" y="40" width="60" height="30" as="geometry" />
        </mxCell>
        <mxCell id="Eu43QBAOq91iyaiTCy1v-20" value="titulo" style="ellipse;whiteSpace=wrap;html=1;" vertex="1" parent="1">
          <mxGeometry x="80" width="60" height="30" as="geometry" />
        </mxCell>
        <mxCell id="Eu43QBAOq91iyaiTCy1v-21" value="genero" style="ellipse;whiteSpace=wrap;html=1;" vertex="1" parent="1">
          <mxGeometry x="10" y="30" width="60" height="30" as="geometry" />
        </mxCell>
        <mxCell id="Eu43QBAOq91iyaiTCy1v-22" value="duracion" style="ellipse;whiteSpace=wrap;html=1;" vertex="1" parent="1">
          <mxGeometry x="10" y="90" width="70" height="30" as="geometry" />
        </mxCell>
        <mxCell id="Eu43QBAOq91iyaiTCy1v-23" value="clasificacion" style="ellipse;whiteSpace=wrap;html=1;" vertex="1" parent="1">
          <mxGeometry x="40" y="140" width="80" height="40" as="geometry" />
        </mxCell>
        <mxCell id="Eu43QBAOq91iyaiTCy1v-30" value="(0:N)" style="text;html=1;strokeColor=none;fillColor=none;align=center;verticalAlign=middle;whiteSpace=wrap;rounded=0;" vertex="1" parent="1">
          <mxGeometry x="550" y="255" width="60" height="30" as="geometry" />
        </mxCell>
        <mxCell id="Eu43QBAOq91iyaiTCy1v-31" value="(1:1)" style="text;html=1;strokeColor=none;fillColor=none;align=center;verticalAlign=middle;whiteSpace=wrap;rounded=0;" vertex="1" parent="1">
          <mxGeometry x="545" y="110" width="60" height="30" as="geometry" />
        </mxCell>
        <mxCell id="Eu43QBAOq91iyaiTCy1v-32" value="(1:N)" style="text;html=1;strokeColor=none;fillColor=none;align=center;verticalAlign=middle;whiteSpace=wrap;rounded=0;" vertex="1" parent="1">
          <mxGeometry x="200" y="280" width="60" height="30" as="geometry" />
        </mxCell>
        <mxCell id="Eu43QBAOq91iyaiTCy1v-35" value="(1:1)" style="text;html=1;strokeColor=none;fillColor=none;align=center;verticalAlign=middle;whiteSpace=wrap;rounded=0;" vertex="1" parent="1">
          <mxGeometry x="425" y="310" width="60" height="30" as="geometry" />
        </mxCell>
        <mxCell id="Eu43QBAOq91iyaiTCy1v-36" value="&lt;b&gt;N:1&lt;/b&gt;" style="text;html=1;strokeColor=none;fillColor=none;align=center;verticalAlign=middle;whiteSpace=wrap;rounded=0;" vertex="1" parent="1">
          <mxGeometry x="320" y="335" width="60" height="30" as="geometry" />
        </mxCell>
        <mxCell id="Eu43QBAOq91iyaiTCy1v-37" value="&lt;b&gt;1:N&lt;/b&gt;" style="text;html=1;strokeColor=none;fillColor=none;align=center;verticalAlign=middle;whiteSpace=wrap;rounded=0;" vertex="1" parent="1">
          <mxGeometry x="580" y="180" width="60" height="30" as="geometry" />
        </mxCell>
        <mxCell id="Eu43QBAOq91iyaiTCy1v-44" style="edgeStyle=orthogonalEdgeStyle;rounded=0;orthogonalLoop=1;jettySize=auto;html=1;exitX=0.5;exitY=0;exitDx=0;exitDy=0;entryX=0.5;entryY=1;entryDx=0;entryDy=0;" edge="1" parent="1" source="Eu43QBAOq91iyaiTCy1v-38" target="Eu43QBAOq91iyaiTCy1v-1">
          <mxGeometry relative="1" as="geometry" />
        </mxCell>
        <mxCell id="Eu43QBAOq91iyaiTCy1v-45" style="edgeStyle=orthogonalEdgeStyle;rounded=0;orthogonalLoop=1;jettySize=auto;html=1;exitX=1;exitY=0;exitDx=0;exitDy=0;entryX=0;entryY=0.75;entryDx=0;entryDy=0;" edge="1" parent="1" source="Eu43QBAOq91iyaiTCy1v-38" target="Eu43QBAOq91iyaiTCy1v-2">
          <mxGeometry relative="1" as="geometry" />
        </mxCell>
        <mxCell id="Eu43QBAOq91iyaiTCy1v-38" value="asocia" style="rhombus;whiteSpace=wrap;html=1;" vertex="1" parent="1">
          <mxGeometry x="230" y="180" width="90" height="40" as="geometry" />
        </mxCell>
        <mxCell id="Eu43QBAOq91iyaiTCy1v-46" value="(1:N)" style="text;html=1;strokeColor=none;fillColor=none;align=center;verticalAlign=middle;whiteSpace=wrap;rounded=0;" vertex="1" parent="1">
          <mxGeometry x="110" y="255" width="60" height="30" as="geometry" />
        </mxCell>
        <mxCell id="Eu43QBAOq91iyaiTCy1v-47" value="(1:1)" style="text;html=1;strokeColor=none;fillColor=none;align=center;verticalAlign=middle;whiteSpace=wrap;rounded=0;" vertex="1" parent="1">
          <mxGeometry x="150" y="120" width="60" height="30" as="geometry" />
        </mxCell>
        <mxCell id="Eu43QBAOq91iyaiTCy1v-50" value="(1:1)" style="text;html=1;strokeColor=none;fillColor=none;align=center;verticalAlign=middle;whiteSpace=wrap;rounded=0;" vertex="1" parent="1">
          <mxGeometry x="414" y="100" width="60" height="30" as="geometry" />
        </mxCell>
        <mxCell id="Eu43QBAOq91iyaiTCy1v-51" value="&lt;b&gt;1:N&lt;/b&gt;" style="text;html=1;strokeColor=none;fillColor=none;align=center;verticalAlign=middle;whiteSpace=wrap;rounded=0;" vertex="1" parent="1">
          <mxGeometry x="180" y="185" width="60" height="30" as="geometry" />
        </mxCell>
      </root>
    </mxGraphModel>
  </diagram>
  <diagram id="sri8s_FNmvloCKY2MDZy" name="ejercicio1">
    <mxGraphModel dx="880" dy="452" grid="1" gridSize="10" guides="1" tooltips="1" connect="1" arrows="1" fold="1" page="1" pageScale="1" pageWidth="827" pageHeight="1169" math="0" shadow="0">
      <root>
        <mxCell id="0" />
        <mxCell id="1" parent="0" />
        <mxCell id="M3yZ0DsaWrJWyvvN4tbv-7" style="edgeStyle=orthogonalEdgeStyle;rounded=0;orthogonalLoop=1;jettySize=auto;html=1;exitX=1;exitY=0.5;exitDx=0;exitDy=0;entryX=0;entryY=0.5;entryDx=0;entryDy=0;endArrow=none;endFill=0;" edge="1" parent="1" source="M3yZ0DsaWrJWyvvN4tbv-1" target="M3yZ0DsaWrJWyvvN4tbv-6">
          <mxGeometry relative="1" as="geometry" />
        </mxCell>
        <mxCell id="M3yZ0DsaWrJWyvvN4tbv-28" style="edgeStyle=orthogonalEdgeStyle;rounded=0;orthogonalLoop=1;jettySize=auto;html=1;exitX=0.25;exitY=0;exitDx=0;exitDy=0;entryX=0.614;entryY=1;entryDx=0;entryDy=0;entryPerimeter=0;endArrow=none;endFill=0;" edge="1" parent="1" source="M3yZ0DsaWrJWyvvN4tbv-1" target="M3yZ0DsaWrJWyvvN4tbv-24">
          <mxGeometry relative="1" as="geometry" />
        </mxCell>
        <mxCell id="M3yZ0DsaWrJWyvvN4tbv-29" style="edgeStyle=orthogonalEdgeStyle;rounded=0;orthogonalLoop=1;jettySize=auto;html=1;exitX=0;exitY=0;exitDx=0;exitDy=0;entryX=1;entryY=0.5;entryDx=0;entryDy=0;endArrow=none;endFill=0;" edge="1" parent="1" source="M3yZ0DsaWrJWyvvN4tbv-1" target="M3yZ0DsaWrJWyvvN4tbv-25">
          <mxGeometry relative="1" as="geometry" />
        </mxCell>
        <mxCell id="M3yZ0DsaWrJWyvvN4tbv-30" style="edgeStyle=orthogonalEdgeStyle;rounded=0;orthogonalLoop=1;jettySize=auto;html=1;exitX=0;exitY=0.5;exitDx=0;exitDy=0;entryX=1;entryY=1;entryDx=0;entryDy=0;endArrow=none;endFill=0;" edge="1" parent="1" source="M3yZ0DsaWrJWyvvN4tbv-1" target="M3yZ0DsaWrJWyvvN4tbv-26">
          <mxGeometry relative="1" as="geometry" />
        </mxCell>
        <mxCell id="M3yZ0DsaWrJWyvvN4tbv-31" style="edgeStyle=orthogonalEdgeStyle;rounded=0;orthogonalLoop=1;jettySize=auto;html=1;exitX=0;exitY=1;exitDx=0;exitDy=0;entryX=1;entryY=0.5;entryDx=0;entryDy=0;endArrow=none;endFill=0;" edge="1" parent="1" source="M3yZ0DsaWrJWyvvN4tbv-1" target="M3yZ0DsaWrJWyvvN4tbv-27">
          <mxGeometry relative="1" as="geometry">
            <Array as="points">
              <mxPoint x="130" y="115" />
              <mxPoint x="130" y="115" />
            </Array>
          </mxGeometry>
        </mxCell>
        <mxCell id="M3yZ0DsaWrJWyvvN4tbv-1" value="DISCOS" style="rounded=0;whiteSpace=wrap;html=1;" vertex="1" parent="1">
          <mxGeometry x="150" y="75" width="80" height="40" as="geometry" />
        </mxCell>
        <mxCell id="M3yZ0DsaWrJWyvvN4tbv-2" value="GENERO" style="rounded=0;whiteSpace=wrap;html=1;" vertex="1" parent="1">
          <mxGeometry x="490" y="80" width="80" height="30" as="geometry" />
        </mxCell>
        <mxCell id="M3yZ0DsaWrJWyvvN4tbv-13" style="edgeStyle=orthogonalEdgeStyle;rounded=0;orthogonalLoop=1;jettySize=auto;html=1;exitX=0;exitY=0.5;exitDx=0;exitDy=0;entryX=1;entryY=0.5;entryDx=0;entryDy=0;endArrow=none;endFill=0;" edge="1" parent="1" source="M3yZ0DsaWrJWyvvN4tbv-3" target="M3yZ0DsaWrJWyvvN4tbv-12">
          <mxGeometry relative="1" as="geometry" />
        </mxCell>
        <mxCell id="M3yZ0DsaWrJWyvvN4tbv-3" value="CLIENTES" style="rounded=0;whiteSpace=wrap;html=1;" vertex="1" parent="1">
          <mxGeometry x="500" y="295" width="80" height="40" as="geometry" />
        </mxCell>
        <mxCell id="M3yZ0DsaWrJWyvvN4tbv-19" style="edgeStyle=orthogonalEdgeStyle;rounded=0;orthogonalLoop=1;jettySize=auto;html=1;exitX=0.5;exitY=0;exitDx=0;exitDy=0;entryX=0.5;entryY=1;entryDx=0;entryDy=0;endArrow=none;endFill=0;" edge="1" parent="1" source="M3yZ0DsaWrJWyvvN4tbv-4" target="M3yZ0DsaWrJWyvvN4tbv-18">
          <mxGeometry relative="1" as="geometry" />
        </mxCell>
        <mxCell id="M3yZ0DsaWrJWyvvN4tbv-4" value="COMPRAS" style="rounded=0;whiteSpace=wrap;html=1;" vertex="1" parent="1">
          <mxGeometry x="150" y="300" width="80" height="30" as="geometry" />
        </mxCell>
        <mxCell id="M3yZ0DsaWrJWyvvN4tbv-8" style="edgeStyle=orthogonalEdgeStyle;rounded=0;orthogonalLoop=1;jettySize=auto;html=1;exitX=1;exitY=0.5;exitDx=0;exitDy=0;entryX=0;entryY=0.5;entryDx=0;entryDy=0;endArrow=none;endFill=0;" edge="1" parent="1" source="M3yZ0DsaWrJWyvvN4tbv-6" target="M3yZ0DsaWrJWyvvN4tbv-2">
          <mxGeometry relative="1" as="geometry" />
        </mxCell>
        <mxCell id="M3yZ0DsaWrJWyvvN4tbv-6" value="pertenecen" style="rhombus;whiteSpace=wrap;html=1;" vertex="1" parent="1">
          <mxGeometry x="320" y="70" width="80" height="50" as="geometry" />
        </mxCell>
        <mxCell id="M3yZ0DsaWrJWyvvN4tbv-9" value="(1:N)" style="text;html=1;strokeColor=none;fillColor=none;align=center;verticalAlign=middle;whiteSpace=wrap;rounded=0;" vertex="1" parent="1">
          <mxGeometry x="220" y="70" width="60" height="30" as="geometry" />
        </mxCell>
        <mxCell id="M3yZ0DsaWrJWyvvN4tbv-10" value="(1:1)" style="text;html=1;strokeColor=none;fillColor=none;align=center;verticalAlign=middle;whiteSpace=wrap;rounded=0;" vertex="1" parent="1">
          <mxGeometry x="440" y="70" width="60" height="30" as="geometry" />
        </mxCell>
        <mxCell id="M3yZ0DsaWrJWyvvN4tbv-11" value="&lt;b&gt;N:1&lt;/b&gt;" style="text;html=1;strokeColor=none;fillColor=none;align=center;verticalAlign=middle;whiteSpace=wrap;rounded=0;" vertex="1" parent="1">
          <mxGeometry x="330" y="40" width="60" height="30" as="geometry" />
        </mxCell>
        <mxCell id="M3yZ0DsaWrJWyvvN4tbv-14" style="edgeStyle=orthogonalEdgeStyle;rounded=0;orthogonalLoop=1;jettySize=auto;html=1;exitX=0;exitY=0.5;exitDx=0;exitDy=0;entryX=1;entryY=0.5;entryDx=0;entryDy=0;endArrow=none;endFill=0;" edge="1" parent="1" source="M3yZ0DsaWrJWyvvN4tbv-12" target="M3yZ0DsaWrJWyvvN4tbv-4">
          <mxGeometry relative="1" as="geometry" />
        </mxCell>
        <mxCell id="M3yZ0DsaWrJWyvvN4tbv-12" value="realizar" style="rhombus;whiteSpace=wrap;html=1;" vertex="1" parent="1">
          <mxGeometry x="330" y="292.5" width="70" height="45" as="geometry" />
        </mxCell>
        <mxCell id="M3yZ0DsaWrJWyvvN4tbv-15" value="(1:N)" style="text;html=1;strokeColor=none;fillColor=none;align=center;verticalAlign=middle;whiteSpace=wrap;rounded=0;" vertex="1" parent="1">
          <mxGeometry x="230" y="280" width="60" height="30" as="geometry" />
        </mxCell>
        <mxCell id="M3yZ0DsaWrJWyvvN4tbv-16" value="(1:1)" style="text;html=1;strokeColor=none;fillColor=none;align=center;verticalAlign=middle;whiteSpace=wrap;rounded=0;" vertex="1" parent="1">
          <mxGeometry x="440" y="280" width="60" height="30" as="geometry" />
        </mxCell>
        <mxCell id="M3yZ0DsaWrJWyvvN4tbv-17" value="&lt;b&gt;N:1&lt;/b&gt;" style="text;html=1;strokeColor=none;fillColor=none;align=center;verticalAlign=middle;whiteSpace=wrap;rounded=0;" vertex="1" parent="1">
          <mxGeometry x="330" y="263" width="60" height="30" as="geometry" />
        </mxCell>
        <mxCell id="M3yZ0DsaWrJWyvvN4tbv-20" style="edgeStyle=orthogonalEdgeStyle;rounded=0;orthogonalLoop=1;jettySize=auto;html=1;exitX=0.5;exitY=0;exitDx=0;exitDy=0;entryX=0.5;entryY=1;entryDx=0;entryDy=0;endArrow=none;endFill=0;" edge="1" parent="1" source="M3yZ0DsaWrJWyvvN4tbv-18" target="M3yZ0DsaWrJWyvvN4tbv-1">
          <mxGeometry relative="1" as="geometry" />
        </mxCell>
        <mxCell id="M3yZ0DsaWrJWyvvN4tbv-18" value="contiene" style="rhombus;whiteSpace=wrap;html=1;" vertex="1" parent="1">
          <mxGeometry x="145" y="180" width="90" height="40" as="geometry" />
        </mxCell>
        <mxCell id="M3yZ0DsaWrJWyvvN4tbv-21" value="(1:N)" style="text;html=1;strokeColor=none;fillColor=none;align=center;verticalAlign=middle;whiteSpace=wrap;rounded=0;" vertex="1" parent="1">
          <mxGeometry x="130" y="270" width="60" height="30" as="geometry" />
        </mxCell>
        <mxCell id="M3yZ0DsaWrJWyvvN4tbv-22" value="(1:N)" style="text;html=1;strokeColor=none;fillColor=none;align=center;verticalAlign=middle;whiteSpace=wrap;rounded=0;" vertex="1" parent="1">
          <mxGeometry x="130" y="120" width="60" height="30" as="geometry" />
        </mxCell>
        <mxCell id="M3yZ0DsaWrJWyvvN4tbv-23" value="&lt;b&gt;N:M&lt;/b&gt;" style="text;html=1;strokeColor=none;fillColor=none;align=center;verticalAlign=middle;whiteSpace=wrap;rounded=0;" vertex="1" parent="1">
          <mxGeometry x="90" y="185" width="60" height="30" as="geometry" />
        </mxCell>
        <mxCell id="M3yZ0DsaWrJWyvvN4tbv-24" value="titulo" style="ellipse;whiteSpace=wrap;html=1;" vertex="1" parent="1">
          <mxGeometry x="140" width="70" height="30" as="geometry" />
        </mxCell>
        <mxCell id="M3yZ0DsaWrJWyvvN4tbv-25" value="artista" style="ellipse;whiteSpace=wrap;html=1;" vertex="1" parent="1">
          <mxGeometry x="60" y="15" width="70" height="35" as="geometry" />
        </mxCell>
        <mxCell id="M3yZ0DsaWrJWyvvN4tbv-26" value="aÃ±o_publicacion" style="ellipse;whiteSpace=wrap;html=1;" vertex="1" parent="1">
          <mxGeometry y="55" width="120" height="35" as="geometry" />
        </mxCell>
        <mxCell id="M3yZ0DsaWrJWyvvN4tbv-27" value="precio" style="ellipse;whiteSpace=wrap;html=1;" vertex="1" parent="1">
          <mxGeometry y="100" width="60" height="30" as="geometry" />
        </mxCell>
      </root>
    </mxGraphModel>
  </diagram>
</mxfile>
